<?xml version="1.0" encoding="UTF-8"?>
<svg id="Layer_1" data-name="Layer 1" xmlns="http://www.w3.org/2000/svg" viewBox="0 0 70.74 189.35">
  <defs>
    <style>
      .cls-1, .cls-2 {
        stroke-width: 0px;
      }

      .cls-2 {
        fill: #fff;
      }
    </style>
  </defs>
  <path class="cls-1" d="m70.72,119.23c.05-.21,0-.43-.02-.65.03-.63-.14-1.14-.45-1.67-.15-.31-.08-.69-.16-1.02-.05-.22-.19-.4-.29-.6-.24-.45-.27-.98-.45-1.45-.23-.46-.24-.99-.49-1.44-.34-.68-.78-1.32-1.19-1.96-.18-.29-.18-.65-.35-.95-.55-.66-1.14-1.29-1.36-2.15-.18-.38-.53-.66-.75-1.01-.28-.5-.49-1.04-.9-1.45-.4-.44-.84-.85-1.11-1.39-.44-.74-1.05-1.34-1.56-2.03-.28-.34-.44-.75-.63-1.15-.3-.57-.75-1.06-1.09-1.62-.23-.41-.57-.73-.84-1.09-.21-.32-.3-.7-.54-1.01-.68-.92-1.33-1.87-2.07-2.75-.62-.75-1.31-1.47-1.82-2.31-.34-1.1-1.22-1.75-1.93-2.6-.34-.38-.38-.92-.65-1.33-.41-.59-.96-1.08-1.45-1.6-.52-.44-.24-1.08-.09-1.62.07-.46-.13-1,.19-1.4.59-.45.45-.97.79-1.56.14-.26.45-.29.63-.51.08-.1.14-.24.2-.36.37-.85.96-1.55,1.58-2.23.5-.71.98-1.45,1.47-2.17,1.55-2.48,2.48-5.29,3.15-8.12.56-1.55.45-3.21.62-4.83,0-.34.28-.56.39-.85.1-.54.09-1.1.01-1.64-.25-.95.02-1.01.16-1.86.06-1.07-.42-2.1-.32-3.16.26-1.31-.38-1.88-.99-2.95-.33-.46-.31-.65.19-.99.25-.23.97-.28.77-.76-.49-1.05-1.38-1.96-1.39-3.17-.02-.28.11-.54.13-.81.03-.22-.1-.45-.05-.66.05-.19.36-.17.4-.38.04-.18-.03-.37-.04-.55-.02-.3.14-.59.13-.89-.1-.6-.16-1.2,0-1.8.03-.38.25-.73.3-1.09.02-.23-.14-.47-.17-.71-.06-.45.11-.91.5-1.15.58-.4,1.15-.8,1.72-1.22.45-.39.97-.7,1.39-1.12.22-.27.35-.62.5-.93.28-.79,1.03-1.18,1.55-1.77.19-.22.38-.44.4-.68,0-.37-.2-.74,0-1.1.24-.63.96-.91,1.26-1.5.16-.61,0-1.27.2-1.88.13-.41.11-.84.14-1.26.09-.52.15-1.03.06-1.55-.06-.64.61-1.14.36-1.78-.26-.74-.65-1.13-.19-1.92.13-.54-.03-1.12.24-1.63.47-.93.72-2,1.12-2.97.59-1.29,1.13-2.61,1.09-4.05-.11-3.1.47-6.12-.05-9.19-.84-3.47-2.77-5.27-6.09-3.24-1.88,1.12-3.23,2.87-4.61,4.52-.81,1.07-1.65,2.12-2.44,3.21-.5.69-1.02,1.38-1.17,2.24-.04.93-1.11.68-1.76.73-.75-.08-1.5-.07-2.25.01-1.08.14-2.16.04-3.21-.23-.49-.1-.61-.49-.6-.98-.06-.78-.37-1.51-.58-2.26-.47-1.42-.83-2.88-1.39-4.26-1.06-2.57-3.74-6.58-6.82-4.27-.97.69-1.7,1.65-2.23,2.71-.87,1.81-1.45,3.76-2.05,5.67-.44,1.58-.76,3.19-.86,4.84-.07,1.38.06,2.7.24,4.06.2,1.66.52,3.31,1.05,4.89.18.42.48.79.5,1.25,0,.61,0,1.27,0,1.88-.13.38-.11.78.02,1.16,0,.44.04.87.2,1.29.09.31.12.63.17.95.18.76.54,1.47.86,2.18.2.39.47.74.63,1.15.18.44.24.93.42,1.37.13.48.64.8.77,1.25-.02.34-.29.63-.39.97-.25.63-.39,1.31-.78,1.88-.09.16-.22.35-.25.52-.03.21.14.38.14.6-.02.34-.23.66-.34.99-.17.41-.3.85-.57,1.21-.34.47-.82.81-1.24,1.2-.67.65,1.12.39.08.82-.18.07-.61.19-.57.31.07.13.32.17.4.3.06.13-.12.24-.22.31-.31.21-.68.3-1.02.43-.32.12-.22.47-.34.74-.24.43-.74.59-1.1.89-.13.11-.05.27-.13.39-.22.22-.44.59-.71.81-.6.32-1.27.51-1.88.81-.1.06-.29.12-.29.25.14.2.51.05.66.23-.07.38-1.31.82-1.68,1.13-.1.07-.23.15-.26.26-.02.09.17.14.21.21.04.08-.13.16-.2.21-.22.13-.49.22-.66.39-.17.16-.28.36-.47.5-.51.31-1.06.58-1.46,1.04-.25.27-.42.6-.71.82-.22.18-.5.27-.69.48-.26.28-.18.72-.41,1-.36.49-.96.85-1.1,1.46-.15.54-.78.74-1.1,1.16-.27.33-.49.69-.77,1-.08.13-.09.25-.14.38-.19.34-.56.55-.82.84-.07.07-.15.16-.14.26,0,.12.14.24.08.42-.18.45-.61.75-.87,1.15-.4.67-.81,1.33-1.25,1.97-.46.82-.89,1.68-1.47,2.42-.14.23-.05.4-.14.65-.25.49-.56.97-.85,1.42-.17.24-.15.48-.22.75-.21.47-.38.96-.61,1.42-.46.78-1.08,1.46-1.58,2.22-.15.2-.24.43-.22.68.04.68-.56,1.16-.75,1.78-.11.31.04.6-.02.89-.28.63-.55,1.28-.79,1.94-.19.43-.52.8-.69,1.23-.11.53-.16,1.09-.38,1.6-.05.27.13.42.06.69-.07.23-.19.45-.3.68-.66,1.11-1.05,2.34-1.28,3.6-.09.49-.27.96-.42,1.44-.08.38-.37.79-.24,1.18.14.24.25.52.09.79-.23.7-.66,1.37-.71,2.11.14.74-.27,1.42-.2,2.15,0,.93-.59,1.76-.83,2.63-.17.35.22.47.14.83-.12.78-.31,1.53-.29,2.32-.04.4.16.76.12,1.15-.19.66-.5,1.28-.75,1.93-.2.41-.2.85-.05,1.28.09.29.03.6.05.89.02.27.1.53.09.8,0,.97-.48,1.88-.57,2.83-.03.31.21.61.23.89,0,.18-.09.34-.15.51-.08.22-.09.45-.2.66-.15.27-.4.48-.48.8-.09.92-.31,1.99-1.22,2.44-.77.39-.12.76.16,1.17.15.22.08.51.15.77.05.18.18.32.26.48.2.62-.22,1.71-.52,2.26-.18.3-.45.62-.35.98.09.28.38.48.42.77,0,.68-.19,1.36-.03,2.05.09.55.11,1.11.09,1.66,0,.29.28.23.41.44.28,1.27.17,2.63.35,3.92.07.24.26.43.35.66.12.33.11.7.24,1.03.1.29.34.51.48.78.46,1.14,1.06,2.21,1.59,3.31.21.4.36.86.69,1.18.58.43,1,1.02,1.42,1.6.23.3.63.41.88.7.44.49.82,1.06,1.46,1.31.44.24.78.71,1.21,1,.29.19-.03-.48.56.05.42.3.63.75.84,1.2.35,1.04.77.86,1.28,1.52.1.11.33.73.49.47.04-.08.05-.23.08-.33,0-.03.02-.05.03-.07,0,0,0,0,0,0,0,0,0,0,0-.01,0,0,0,0,.01-.01,0,0,.01,0,.02-.01,0,0,0,0,0,0,0,0,0,0,.01,0,0,0,0,0,0,0,0,0,.01,0,.02,0,0,0,0,0,0,0,0,0,0,0,.01,0,.09.02.2.15.29.2.62.33.36.72,1.11.9.28.07.43.33.64.53.1.09.21.17.31.27.14.12.23.29.29.46.13.32.25.64.39.98.01.03.03.06.04.09.11.24.25.12.35.34.13.36.37.64.56.97.34.7.65,1.41.91,2.14.23.68.4,1.38.69,2.03.1.24.21.47.28.72.11.4.13.82.24,1.22.07.28.3.45.41.69.12.35.19.71.3,1.07.07.25.14.5.28.7.18.25.39.48.46.79.17.62.32,1.24.49,1.86.05.12.08.43.24.43.07-.02.15-.13.23-.09.06.04.09.11.12.18.09.28.09.62.2.91.14.41.41.75.57,1.16.18.44.25.92.39,1.38.09.3.28.56.38.86.26.91.47,1.83.76,2.73.41,1.22.41,2.53.6,3.79.04.31.26.54.27.87.06.94.23,1.87.17,2.81-.04.4-.12.8-.13,1.2-.02.47-.04.93-.18,1.37-.13.3-.08.65-.17.95-.22.53-.56,1.01-.75,1.55-.05.16-.07.33-.09.5-.07.52-.29,1.02-.43,1.53-.16.74-.39,1.51-.95,2.03-.47.48-1.16.62-1.79.78-1,.26-1.99.59-3.04.58-.35-.02-.71.16-1.05.14-.16-.02-.31-.08-.46-.14-1.11-.46-2.23-.92-3.29-1.5-1.24-.51-2.41-1.14-3.51-1.9-.78-.51-1.53-1.07-2.13-1.79-.88-1.03-1.74-2.08-2.46-3.23-.46-.7-.87-1.44-1.34-2.14-.43-.55-.89-1.08-1.37-1.59-.33-.36-.69-.69-1.17-.82-.53-.17-.88-.66-1.35-.92-.13-.05-.23,0-.34,0-.08,0-.19-.03-.24,0-.08.06-.08.27-.13.36-.04.09-.11.14-.13.22-.04.1.02.29.04.42.04.2-.02.4-.24.37-.12-.02-.05.23-.08.28-.02.09,0,.19,0,.29.16.44.03.46.07.92.05.33.2.65.31.97.13.39.21.79.36,1.17.71,1.71,1.67,3.29,2.62,4.87.7,1.12,1.62,2.09,2.51,3.06.29.26.45.63.68.92.3.3.67.53,1,.79,1.29.97,2.76,1.67,4.1,2.57.37.23.77.39,1.15.58.78.4,1.56.78,2.39,1.06,1.25.41,2.55.78,3.88.77,1-.04,1.98-.25,2.96-.38.38-.05.78-.03,1.15-.12.37-.08.72-.21,1.08-.32,1.45-.49,3.03-.99,4.04-2.2.27-.3.54-.63.8-.93.13-.16.31-.23.46-.35.1-.08.16-.18.21-.3.26-.6.51-1.2.77-1.8.25-.55.45-1.16.75-1.7.08-.08.08.2.13.18.08-.11.1-.27.14-.41.25-.99.55-1.96.85-2.95.1-.4.37-.19.48-.4.05-.11.04-.24.05-.38.02-.44-.01-.89.05-1.32.04-.26.09-.51.13-.77.05-.83.24-1.64.22-2.47,0-.11,0-.22.01-.33.03-.24.17-.46.22-.7.07-.37,0-.76-.06-1.13-.16-.92-.39-1.83-.57-2.74-.07-.39-.21-.78-.08-1.17.24-.66-.11-1.32-.26-1.97-.06-.29-.05-.59-.1-.89-.08-.57-.37-1.1-.55-1.65-.04-.14,0-.23.04-.35.03-.18-.14-.4-.13-.62.02-.51-.19-.98-.39-1.44-.4-.83-.83-1.65-1.24-2.48-.03-.07-.21-.4-.07-.41.13.04.25.23.35.31.06.06.11.05.09-.05-.04-.22-.14-.45-.19-.67-.16-1.01-.68-1.9-1.15-2.78-.14-.26-.29-.52-.37-.8-.1-.33-.11-.71-.23-1.04-.11-.36-.39-.67-.4-1.05.02-.14.18-.13.21-.22.02-.16-.1-.31-.16-.45-.31-.64-.72-1.25-.94-1.93-.02-.1-.04-.18,0-.27.05-.11.24-.03.27-.09,0,0,0-.01,0-.02,0-.15-.11-.29-.17-.42-.24-.49-.53-.98-.75-1.48-.07-.19-.07-.39-.1-.58-.02-.13-.07-.26-.04-.35.09-.22.41-.02.58-.1.16-.05.29-.19.43-.31.19-.12.35-.19.5-.23.29-.06.59,0,.87.07.36.09.73.04,1.1,0,.22-.03.45-.03.65-.09.19-.05.37-.14.57-.16.35-.02.68.11,1.03.04.28-.05.54-.19.8-.29.4-.16.85-.24,1.3-.22.35.02.69.07,1-.14.76-.17,1.55-.09,2.33-.11.34,0,.64-.2.95-.29.34-.08.7-.07,1.05-.15,1.06-.31,2.13-.52,3.23-.6.46-.09.94-.03,1.4-.02.24-.01.47-.11.7-.12,1.09.13,2.15.61,3.26.68,1.99.1,3.99-.01,5.97-.04,1.15.13,2.31-.91,2.33-2.05,0-.3-.08-.59-.09-.88.16-1.14.21-1.53-.52-2.4-.38-.55-.79-1.09-1.31-1.51-.36-.28-.56-.7-.92-.97-1.25-.67-.76-.9-1.01-1.93-.2-.34-.33-.78-.61-1.06-.92-.55-1.98-.87-2.96-1.28-.35-.16-.78-.23-1.07-.48-.13-.15-.04-.36-.1-.58-.06-.2-.21-.37-.27-.57-.09-.27-.06-.56-.13-.84-.16-.52-.27-.79-.1-1.31-.01-.32.07-.61.36-.78.22-.27.48-.31.77-.49.35-.37.63-.8.94-1.18.2-.29.59-.32.77-.62.27-.42.53-.87.79-1.3.13-.17.22-.43.43-.49.11,0,.15.26.25.23.17-.09.24-.3.34-.46.37-.68.66-1.41,1.04-2.09.22-.43.55-.81.75-1.25.2-.69.68-1.27.75-1.99.13-.74.04-1.48-.06-2.22,0-.79-.2-1.55-.5-2.27-.32-.93-1.03-1.67-1.53-2.5-.2-.27-.22-.64-.42-.87-.66-.55-1.48-.9-2.17-1.43-.4-.36-.72-.79-1.2-1.05-.52-.55-1.25-.7-1.91-1.03-.36-.18-.33-.34-.21-.66-.02-.13-.21-.11-.32-.13-.81-.08-1.62.06-2.43.02-.2-.04-.35-.16-.53-.24-.59-.26-1.46.17-1.38-.84.01-.3-.13-.87.03-1.08.06-.05.14-.04.21-.07.34-.38-.69-2.55.65-1.57.67.48,1.3,1.03,2,1.46.55.21.99.58,1.52.82,1.25.45,1.77,1.14,2.71,1.98.25.19.57.24.83.41.49.4.92.87,1.41,1.29.35.33.86.39,1.21.73.51.44,1.05.85,1.53,1.33.7.82,1.35,1.69,2.33,2.2.58.37.77,1.1,1.26,1.55.37.32.87.5,1.08.98.81,1.91.95,2.38,3,3.08.62.24,1.03.86,1.16,1.5.05.28.2.58.02.84-.49.51-1.06.98-1.33,1.66-.39,1.03-.62,2.11-1.16,3.08-.34.6-.67,1.31-.49,2,.1.78.86,1.23,1.16,1.89.21.79.24,1.35.95,1.9.21.22.32.52.54.73.26.26.63.39.98.46.9.26,1.44-.62,2.27-.12.19.08.38.15.58.12.78-.34,1.4-1.02,2.1-1.5.23-.26.24-.65.47-.92.25-.34.65-.54.91-.88.91-1.11.14-2.56.39-3.84.09-.44.04-.88.04-1.32.03-.23.17-.44.18-.7,0-.51-.23-1.01-.13-1.51.05-.24.22-.45.27-.69Z"/>
  <path class="cls-2" d="m54.9,27.04c.06-.5.11-1,.23-1.48.36-1.45,1.31-2.33,2.79-2.55,1.23-.18,2.37.07,3.27.97,1.55,1.54,1.47,3.91.15,5.38-1.04,1.16-2.75,1.51-4.21.89-.83-.35-1.51-.89-2.02-1.63-.14-.2-.19-.31-.23-.61-.04-.32-.04-.65,0-.97Z"/>
  <path class="cls-2" d="m46.01,29.31c-1.45,1.13-3.03,1.38-4.71.58-1.23-.58-1.81-1.65-1.95-2.96-.07-.66-.04-1.31.28-1.94.55-1.1,1.43-1.75,2.59-2.05.2-.05.4-.08.6-.11.54-.07,1.09-.05,1.61.09,1.22.32,2.09,1.16,2.41,2.45.16.63.14,1.31.2,1.97.08.88-.4,1.48-1.04,1.97Z"/>
  <path class="cls-1" d="m56.66,29.25c.66.65,1.58.57,2.17-.16.72-.88.9-1.9.86-2.99,0-.22-.1-.29-.33-.29-.46,0-.89-.37-.97-.78-.08-.4.05-.62.55-.87-.05-.07-.08-.13-.12-.18-.66-.7-1.69-.65-2.36.12-.7.81-.86,1.77-.77,2.79.07.88.32,1.71.98,2.35Z"/>
  <path class="cls-1" d="m45.61,25.9c-.31.03-.52-.06-.73-.29-.48-.5-.25-1.2.28-1.37.04-.01.12-.03.17-.04.01,0,.02-.02.01-.03-.06-.09-.11-.18-.18-.24-.75-.83-1.97-.77-2.66.17-1.04,1.41-1.03,2.91-.32,4.44.21.45.57.8,1.06.96.65.22,1.19-.02,1.64-.49.77-.81,1-1.82,1.01-2.91,0-.19-.11-.21-.27-.2Z"/>
</svg>