<svg xmlns="http://www.w3.org/2000/svg" version="1.1" xmlns:xlink="http://www.w3.org/1999/xlink" xmlns:svgjs="http://svgjs.com/svgjs" width="23.03" height="23.03"><svg id="SvgjsSvg1000" data-name="Layer 1" xmlns="http://www.w3.org/2000/svg" viewBox="0 0 23.03 23.03">
  <defs>
    <style>
      .cls-1, .cls-2 {
        stroke-width: 0px;
      }

      .cls-2 {
        fill: #fff;
      }
    </style>
  </defs>
  <rect class="cls-1" x="-1.04" y="-1.04" width="25.12" height="25.12"></rect>
  <g>
    <path class="cls-2" d="m15,11.82c.05-.43.1-.86.2-1.27.31-1.25,1.12-1.99,2.4-2.18,1.05-.16,2.03.06,2.8.83,1.33,1.32,1.26,3.35.13,4.62-.89.99-2.36,1.29-3.61.76-.71-.3-1.29-.76-1.73-1.4-.12-.17-.16-.26-.19-.52-.03-.28-.03-.56,0-.84Z"></path>
    <path class="cls-2" d="m7.38,13.78c-1.24.97-2.6,1.18-4.04.5-1.05-.5-1.55-1.41-1.67-2.54-.06-.56-.04-1.12.24-1.66.48-.94,1.23-1.5,2.22-1.76.17-.04.34-.07.51-.09.46-.06.93-.05,1.38.07,1.05.28,1.79,1,2.07,2.1.14.54.12,1.12.17,1.69.07.76-.35,1.27-.89,1.69Z"></path>
    <path class="cls-1" d="m16.51,13.73c.57.56,1.35.49,1.86-.14.61-.75.77-1.63.74-2.56,0-.19-.09-.25-.28-.25-.39,0-.76-.32-.84-.67-.07-.35.04-.53.48-.75-.04-.06-.07-.11-.11-.15-.56-.6-1.45-.56-2.02.11-.6.69-.73,1.52-.66,2.39.06.76.28,1.46.84,2.01Z"></path>
    <path class="cls-1" d="m7.03,10.86c-.27.03-.44-.05-.63-.25-.41-.43-.22-1.03.24-1.17.04-.01.11-.03.14-.04.01,0,.02-.02,0-.03-.06-.08-.1-.15-.15-.21-.64-.71-1.69-.66-2.28.14-.89,1.21-.88,2.5-.28,3.81.18.38.49.68.91.82.56.19,1.02-.02,1.4-.42.66-.7.86-1.56.86-2.49,0-.17-.1-.18-.23-.17Z"></path>
  </g>
</svg><style>@media (prefers-color-scheme: light) { :root { filter: none; } }
</style></svg>