<?xml version="1.0" encoding="UTF-8"?>
<svg id="Design" xmlns="http://www.w3.org/2000/svg" viewBox="0 0 71.15 29.2">
  <defs>
    <style>
      .cls-1 {
        stroke-width: 0px;
      }
    </style>
  </defs>
  <g>
    <path class="cls-1" d="m7.09,3.42c.28-.27.57-.54.85-.82.06-.06.13-.16.13-.24.01-.95.64-1.42,1.39-1.78.38-.19.8-.31,1.2-.47C10.71.09,10.75.04,10.79,0c.05,0,.1,0,.14,0-.28.97-.75,1.8-1.68,2.3-.16.08-.33.18-.5.19-.59.03-.99.34-1.36.75-.08.08-.21.12-.31.18h0Z"/>
    <path class="cls-1" d="m60.32,0c.19.09.37.2.56.27.72.27,1.44.54,1.89,1.22.1.15.23.33.22.48-.04.46.24.72.54.98.17.15.33.31.49.47h0c-.11-.06-.24-.1-.31-.18-.37-.41-.79-.65-1.36-.76-.91-.19-1.49-.86-1.88-1.68-.12-.26-.2-.53-.3-.8.05,0,.1,0,.14,0Z"/>
    <path class="cls-1" d="m7.08,3.41c-.07.13-.12.26-.2.37-.14.19-.31.38-.46.56.02.02.04.05.06.07.06-.04.15-.06.18-.11.41-.81,1.13-.98,1.94-.92.44.03.87.13,1.35.2-.37.54-.83.88-1.39,1.08-.6.21-1.19.18-1.78-.07-.16-.07-.5-.05-.58.06-.54.75-1.03,1.53-1.54,2.3.04.03.09.07.13.1.06-.06.15-.12.17-.19.24-.9.96-1.17,1.76-1.3.47-.07.95-.07,1.5-.11-.33.61-.74,1.07-1.28,1.38-.56.33-1.15.49-1.82.31-.17-.04-.5.08-.57.22-.35.7-.63,1.44-.89,2.18.66-1.11,1.82-1.35,2.94-1.8-.18.76-.51,1.35-.99,1.86-.49.52-1.08.85-1.81.92-.19.02-.48.24-.51.4-.22,1.17-.39,2.35-.57,3.53.05.02.11.03.16.05.04-.08.11-.16.1-.23-.16-1.09.34-1.9,1.11-2.58.4-.35.83-.67,1.31-1.06-.05,1.24-.38,2.27-1.21,3.09-.25.25-.59.43-.91.61-.28.16-.51.36-.48.69.09,1.11.22,2.21.33,3.32,0,.03.04.06.1.17.02-.16.07-.27.04-.34-.4-.87-.13-1.65.33-2.38.39-.63.86-1.21,1.3-1.82.05.05.09.06.1.09.17,1.36-.06,2.62-.95,3.71-.24.29-.64.43-.73.85-.02.11-.06.24-.04.34.29,1.16.7,2.28,1.34,3.33-.02-.09,0-.21-.06-.28-.49-.66-.54-1.4-.33-2.15.22-.8.52-1.59.81-2.46.39.64.51,1.27.55,1.91.05.93-.13,1.8-.66,2.6-.2.31-.28.63-.05,1,.53.85,1.11,1.66,1.83,2.37.03-.02.05-.03.08-.05-.05-.09-.07-.2-.15-.25-.55-.39-.85-.96-.85-1.59-.01-.95.1-1.9.21-2.85.55.52.88,1.13,1.04,1.82.2.85.21,1.7-.1,2.54-.11.29-.06.59.22.83.73.62,1.5,1.19,2.38,1.59.06.03.13.05.23.02-.04-.05-.08-.14-.13-.15-.84-.22-1.22-.86-1.41-1.61-.18-.71-.28-1.45-.44-2.26.88.44,1.42,1.04,1.77,1.84.25.56.33,1.14.29,1.75-.04.52,0,.58.49.76.35.13.71.22,1.05.36.09.03.15.15.22.23-.03.03-.06.06-.08.1-.41-.13-.81-.26-1.22-.38-.27-.08-.51-.06-.7.19-.61.86-1.43,1.21-2.46.93-.62-.17-1.26-.29-1.82-.75.62-.6,1.32-.92,2.12-1.06.83-.15,1.54.16,2.28.49-.04-.04-.09-.07-.14-.11-.05-.03-.11-.05-.16-.08-.69-.45-1.39-.89-2.06-1.36-.42-.3-.52-.33-.93-.03-.41.3-.87.34-1.37.25-.85-.15-1.59-.52-2.23-1.08-.13-.11-.23-.26-.39-.44.78-.35,1.52-.49,2.33-.34.81.15,1.41.61,1.98,1.18-.02-.04-.03-.09-.06-.12-.6-.75-1.2-1.49-1.78-2.25-.28-.37-.43-.45-.85-.32-.53.17-1.01.01-1.44-.26-.84-.53-1.46-1.26-1.82-2.2-.02-.05-.02-.11-.03-.21.85-.1,1.59.14,2.26.61.66.47,1.08,1.13,1.43,1.84.03-.02.05-.03.08-.05-.12-.24-.25-.47-.35-.72-.33-.8-.67-1.61-.98-2.42-.15-.4-.28-.69-.81-.72-.34-.02-.72-.27-.98-.53-.75-.75-1.2-1.69-1.42-2.73-.02-.11,0-.23,0-.41,1.51.57,2.4,1.62,2.87,3.1-.01-.1-.03-.2-.04-.3-.02-.12-.03-.24-.05-.36-.06-.66-.12-1.31-.18-1.97-.03-.39-.12-.71-.57-.84-.21-.06-.42-.25-.55-.43-.83-1.15-1.02-2.46-.96-3.92.8.51,1.26,1.18,1.62,1.95.36.78.36,1.62.34,2.45.03,0,.06,0,.09,0,.02-.21.03-.43.05-.64.07-.78.17-1.57.22-2.35.02-.32,0-.65-.35-.87-.47-.3-.63-.8-.71-1.32-.14-.93-.13-1.86.07-2.78.03-.14.1-.28.16-.46.63.68,1.02,1.43,1.06,2.28.04.82-.08,1.65-.12,2.46.05-.2.1-.42.17-.65.21-.66.41-1.32.63-1.98.14-.41.17-.75-.14-1.12-.19-.22-.3-.56-.32-.85-.1-1.17.16-2.28.68-3.33.04-.08.11-.15.2-.27.79,1.66.65,3.23-.17,4.79.03,0,.06.02.09.02.1-.21.2-.43.31-.64.11-.21.22-.42.35-.63.28-.45.56-.89.84-1.33.2-.31.24-.59.04-.93-.33-.55-.25-1.15-.09-1.74.24-.94.73-1.72,1.51-2.44.17.89.11,1.68-.06,2.47-.17.81-.67,1.45-1.15,2.1.03.02.06.04.09.05.39-.46.79-.91,1.18-1.37,0,0,0,0,0,0Z"/>
    <path class="cls-1" d="m64.02,3.42c.39.46.78.92,1.17,1.38.04-.02.09-.03.13-.05-1.2-1.29-1.51-2.81-1.27-4.57.16.14.27.22.35.32.82.95,1.39,2.01,1.25,3.32-.02.19-.09.4-.2.56-.17.27-.16.54-.02.78.54.9,1.09,1.79,1.66,2.7-.81-1.55-.96-3.13-.16-4.8.39.5.57,1.03.67,1.58.11.62.21,1.25.21,1.88,0,.36-.16.76-.37,1.05-.21.28-.25.56-.17.83.29.97.62,1.93.96,2.9-.4-1.69-.45-3.33.88-4.8.1.41.24.74.24,1.08.01.8,0,1.6-.08,2.4-.05.48-.29.91-.74,1.18-.29.17-.3.49-.28.73.07,1.02.2,2.04.34,3.09-.12-1.79.42-3.29,1.94-4.41.15.94,0,1.79-.27,2.6-.16.48-.42.93-.69,1.36-.12.19-.35.35-.57.41-.34.09-.46.33-.49.59-.1.95-.16,1.9-.24,2.87.42-1.49,1.31-2.55,2.76-3.1.04.02.08.03.12.05-.07.32-.07.67-.21.95-.34.68-.7,1.36-1.13,1.98-.31.45-.79.71-1.38.72-.14,0-.35.21-.41.36-.47,1.15-.92,2.32-1.39,3.51.75-1.54,1.84-2.56,3.75-2.49-.1.26-.15.49-.27.69-.57.94-1.23,1.79-2.38,2.03-.23.05-.52.04-.73-.05-.32-.14-.53,0-.69.2-.65.84-1.27,1.69-1.94,2.59,1.19-1.4,2.61-1.61,4.32-.92-.22.23-.39.45-.59.61-.68.54-1.45.88-2.32.97-.43.04-.85-.05-1.17-.36-.23-.22-.45-.19-.67-.04-.83.57-1.66,1.16-2.4,1.67.59-.29,1.3-.63,2.13-.48.8.14,1.49.47,2.15,1.06-.21.13-.36.27-.54.32-.63.19-1.26.4-1.9.5-.8.12-1.36-.37-1.82-.94-.23-.29-.46-.35-.77-.25-.4.12-.8.25-1.19.37-.03-.03-.06-.07-.08-.1.08-.08.15-.19.25-.23.35-.13.7-.26,1.05-.35.41-.11.5-.37.47-.75-.09-1.24.35-2.27,1.28-3.1.15-.13.33-.24.5-.36.06-.04.13-.06.25-.11-.15,1.05-.21,2.07-.71,2.98-.22.4-.55.72-1.03.84-.08.02-.15.09-.19.21.07-.02.15-.02.21-.05.79-.52,1.58-1.03,2.34-1.58.35-.25.37-.53.24-.95-.48-1.55-.17-2.95.83-4.21.02-.02.06-.03.13-.07.1,1.09.39,2.14.16,3.22-.11.48-.35.88-.73,1.2-.09.07-.15.18-.23.27.05.04.1.08.14.11.51-.66,1.01-1.33,1.52-1.98.44-.56.45-1.05.07-1.71-.77-1.33-.67-2.74-.01-4.22.23.6.47,1.12.63,1.65.15.53.32,1.1.3,1.64-.02.54-.28,1.06-.37,1.62.26-.59.53-1.18.77-1.78.17-.43.26-.89.42-1.33.17-.48,0-.81-.36-1.12-1.01-.88-1.36-2.04-1.35-3.34,0-.25.02-.49.08-.75.71.91,1.57,1.71,1.8,2.88.08.39-.05.82-.08,1.23,0,.11-.02.22-.02.33h.13c.08-.51.19-1.04.25-1.57.06-.56.08-1.12.1-1.68.02-.46-.17-.68-.58-.87-.99-.45-1.5-1.3-1.81-2.29-.13-.41-.17-.85-.25-1.28l.1-.05c.42.33.87.63,1.24,1.01.37.38.74.81.95,1.28.2.46.19,1,.27,1.51.03,0,.06,0,.09,0-.04-.52-.05-1.03-.12-1.55-.08-.6-.19-1.2-.3-1.8-.08-.43-.25-.58-.69-.63-.9-.1-1.56-.6-2.04-1.32-.28-.41-.47-.89-.65-1.37,1.1.38,2.27.61,2.92,1.73-.03-.1-.04-.21-.08-.3-.24-.6-.48-1.2-.73-1.79-.11-.27-.36-.39-.61-.33-1.21.29-2.05-.27-2.78-1.12-.12-.14-.22-.31-.39-.55.54.04.99.02,1.42.11.45.09.93.21,1.29.47.33.23.51.67.76,1.01.04-.03.08-.06.12-.09-.51-.77-1-1.56-1.54-2.3-.08-.11-.44-.13-.61-.05-1.15.53-2.43-.05-3.06-.9-.02-.03-.02-.07-.03-.12,1.26-.19,2.57-.66,3.42.94l.08-.18c-.17-.2-.35-.4-.52-.61-.07-.09-.1-.21-.15-.32,0,0,0,0,0,0Z"/>
  </g>
  <g>
    <polygon class="cls-1" points="13.37 7.31 11.67 7.31 11.67 7.34 13.65 12.37 11.67 12.37 11.67 13.73 14.19 13.73 14.68 14.97 16.39 14.97 13.37 7.31"/>
    <polygon class="cls-1" points="22.31 7.31 22.31 12.06 20.32 9.22 20.32 12.13 22.31 14.97 24.03 14.97 24.03 7.31 22.31 7.31"/>
    <polygon class="cls-1" points="30.93 7.31 30.93 12.06 28.97 9.26 28.97 12.17 30.93 14.97 32.65 14.97 32.65 7.31 30.93 7.31"/>
    <rect class="cls-1" x="37.62" y="7.31" width="3.52" height="1.44"/>
    <path class="cls-1" d="m49.72,12.74c-.42.43-1.01.69-1.65.69-.72,0-1.37-.33-1.8-.85v2.05c.54.27,1.15.43,1.8.43,1.1,0,2.09-.45,2.81-1.17l-1.15-1.15Z"/>
    <polygon class="cls-1" points="58.13 7.28 56.44 9.7 54.92 7.54 54.92 10.45 55.57 11.37 55.57 14.97 57.28 14.97 57.28 11.4 60.17 7.28 58.13 7.28"/>
    <path class="cls-1" d="m48.07,7.14c-.65,0-1.26.16-1.8.43v2.05c.43-.52,1.07-.85,1.8-.85.64,0,1.21.26,1.63.67l1.15-1.15c-.72-.71-1.7-1.15-2.79-1.15Z"/>
    <rect class="cls-1" x="37.62" y="13.5" width="3.52" height="1.44"/>
    <rect class="cls-1" x="37.62" y="10.44" width="2.77" height="1.37"/>
  </g>
  <g>
    <path class="cls-1" d="m44.55,11.92h-1.04v-.18l.52-.56c.07-.08.13-.15.16-.21.03-.06.05-.11.05-.17,0-.07-.02-.13-.06-.18-.04-.05-.1-.07-.17-.07-.08,0-.15.03-.2.08-.05.05-.07.12-.07.21h-.26c0-.09.02-.18.06-.26s.1-.13.18-.18.17-.06.28-.06c.15,0,.27.04.36.11.09.08.13.18.13.31,0,.08-.02.16-.07.24s-.12.18-.22.29l-.38.41h.72v.21Z"/>
    <path class="cls-1" d="m47.37,11.26c0,.22-.04.39-.13.51-.08.11-.21.17-.38.17s-.29-.06-.38-.17c-.09-.11-.13-.27-.13-.49v-.27c0-.22.04-.39.13-.5.08-.11.21-.17.38-.17s.3.05.38.16c.08.11.13.27.13.49v.27Zm-.26-.29c0-.15-.02-.25-.06-.32-.04-.07-.1-.1-.19-.1s-.15.03-.19.1c-.04.06-.06.16-.06.3v.35c0,.15.02.25.06.32s.1.11.19.11.14-.03.18-.1c.04-.07.06-.17.06-.31v-.35Z"/>
    <path class="cls-1" d="m50.25,11.92h-1.04v-.18l.52-.56c.07-.08.13-.15.16-.21.03-.06.05-.11.05-.17,0-.07-.02-.13-.06-.18-.04-.05-.1-.07-.17-.07-.08,0-.15.03-.2.08-.05.05-.07.12-.07.21h-.26c0-.09.02-.18.06-.26s.1-.13.18-.18.17-.06.28-.06c.15,0,.27.04.36.11.09.08.13.18.13.31,0,.08-.02.16-.07.24s-.12.18-.22.29l-.38.41h.72v.21Z"/>
    <path class="cls-1" d="m52.94,11.36h.19v.21h-.19v.35h-.26v-.35h-.67v-.16s.66-1.05.66-1.05h.27v1Zm-.67,0h.41v-.65l-.02.03-.39.61Z"/>
  </g>
  <g>
    <path class="cls-1" d="m19.43,21.03c-.06.08-.16.15-.28.2s-.28.09-.47.09c-.24,0-.43-.07-.58-.22s-.22-.33-.22-.57v-.4c0-.23.07-.42.22-.57s.33-.22.56-.22c.25,0,.43.06.55.17s.19.27.21.47h0s-.42,0-.42,0c-.01-.1-.05-.18-.1-.23s-.13-.08-.23-.08-.19.04-.25.12-.09.19-.09.32v.4c0,.13.03.24.09.32s.15.12.26.12c.08,0,.15,0,.19-.02s.08-.03.11-.05v-.3h-.3v-.29h.75v.72Z"/>
    <path class="cls-1" d="m20.99,20.92h-.6l-.11.37h-.45l.62-1.92h.48l.62,1.92h-.45l-.11-.37Zm-.51-.34h.41l-.2-.69h0l-.2.69Z"/>
    <path class="cls-1" d="m23.55,21.29h-.44l-.7-1.22h0v1.22h-.45v-1.92h.45l.7,1.22h0v-1.22h.44v1.92Z"/>
    <path class="cls-1" d="m26.27,20.52h-.77v.77h-.45v-1.92h1.35v.34h-.9v.46h.77v.34Z"/>
    <path class="cls-1" d="m28.46,20.51c0,.24-.07.43-.22.58s-.35.23-.59.23-.44-.08-.59-.23-.23-.35-.23-.58v-.34c0-.24.08-.43.23-.58s.35-.23.59-.23.44.08.59.23.23.35.23.58v.34Zm-.44-.35c0-.14-.03-.25-.1-.34s-.16-.13-.27-.13-.21.04-.28.13-.1.2-.1.34v.35c0,.14.03.25.1.34s.16.13.28.13.21-.04.27-.13.1-.2.1-.34v-.35Z"/>
    <path class="cls-1" d="m30.56,19.38v1.26c0,.22-.07.39-.22.51s-.34.18-.57.18-.43-.06-.58-.18-.22-.29-.22-.51v-1.26h.45v1.26c0,.12.03.2.09.26s.15.08.26.08.19-.03.25-.08.09-.14.09-.26v-1.26h.45Z"/>
    <path class="cls-1" d="m32.72,21.29h-.44l-.7-1.22h0v1.22h-.45v-1.92h.45l.7,1.22h0v-1.22h.44v1.92Z"/>
    <path class="cls-1" d="m33.3,21.29v-1.92h.69c.23,0,.41.07.57.22s.23.34.23.57v.34c0,.23-.08.42-.23.57s-.34.22-.57.22h-.69Zm.45-1.57v1.23h.22c.12,0,.21-.04.28-.12s.1-.19.1-.32v-.35c0-.13-.03-.24-.1-.32s-.16-.12-.28-.12h-.22Z"/>
    <path class="cls-1" d="m36.32,20.92h-.6l-.11.37h-.45l.62-1.92h.48l.62,1.92h-.45l-.11-.37Zm-.51-.34h.41l-.2-.69h0l-.2.69Z"/>
    <path class="cls-1" d="m38.5,19.72h-.51v1.57h-.45v-1.57h-.5v-.34h1.45v.34Z"/>
    <path class="cls-1" d="m39.42,21.29h-.44v-1.92h.44v1.92Z"/>
    <path class="cls-1" d="m41.61,20.51c0,.24-.07.43-.22.58s-.35.23-.59.23-.44-.08-.59-.23-.23-.35-.23-.58v-.34c0-.24.08-.43.23-.58s.35-.23.59-.23.44.08.59.23.23.35.23.58v.34Zm-.44-.35c0-.14-.03-.25-.1-.34s-.16-.13-.27-.13-.21.04-.28.13-.1.2-.1.34v.35c0,.14.03.25.1.34s.16.13.28.13.21-.04.27-.13.1-.2.1-.34v-.35Z"/>
    <path class="cls-1" d="m43.73,21.29h-.44l-.7-1.22h0v1.22h-.45v-1.92h.45l.7,1.22h0v-1.22h.44v1.92Z"/>
    <path class="cls-1" d="m46.26,20.92h-.6l-.11.37h-.45l.62-1.92h.48l.62,1.92h-.45l-.11-.37Zm-.51-.34h.41l-.2-.69h0l-.2.69Z"/>
    <path class="cls-1" d="m48.72,20.63h0l.25-1.26h.43l-.44,1.92h-.42l-.32-1.18h0l-.32,1.18h-.42l-.44-1.92h.43l.25,1.26h0l.34-1.26h.31l.34,1.26Z"/>
    <path class="cls-1" d="m50.8,20.92h-.6l-.11.37h-.45l.62-1.92h.48l.62,1.92h-.45l-.11-.37Zm-.51-.34h.41l-.2-.69h0l-.2.69Z"/>
    <path class="cls-1" d="m52.21,20.56v.73h-.45v-1.92h.74c.22,0,.4.05.53.15s.19.24.19.42c0,.1-.03.18-.08.26s-.13.13-.23.17c.12.03.2.09.25.17s.08.17.08.29v.12c0,.05,0,.11.02.17s.04.11.08.14v.03h-.46s-.06-.08-.07-.14-.02-.13-.02-.19v-.12c0-.09-.02-.16-.07-.21s-.12-.07-.21-.07h-.31Zm0-.34h.29c.09,0,.16-.02.21-.06s.07-.1.07-.18-.02-.14-.07-.19-.12-.07-.21-.07h-.29v.5Z"/>
    <path class="cls-1" d="m53.81,21.29v-1.92h.69c.23,0,.41.07.57.22s.23.34.23.57v.34c0,.23-.08.42-.23.57s-.34.22-.57.22h-.69Zm.45-1.57v1.23h.22c.12,0,.21-.04.28-.12s.1-.19.1-.32v-.35c0-.13-.03-.24-.1-.32s-.16-.12-.28-.12h-.22Z"/>
    <path class="cls-1" d="m24,23.76h-.77v.77h-.45v-1.92h1.35v.34h-.9v.46h.77v.34Z"/>
    <path class="cls-1" d="m26.19,23.74c0,.24-.07.43-.22.58-.15.15-.35.23-.59.23s-.44-.08-.59-.23c-.15-.15-.23-.35-.23-.58v-.34c0-.24.08-.43.23-.58.15-.15.35-.23.59-.23s.44.08.59.23c.15.15.23.35.23.58v.34Zm-.44-.35c0-.14-.03-.25-.1-.34-.06-.09-.16-.13-.27-.13s-.21.04-.28.13c-.06.09-.1.2-.1.34v.35c0,.14.03.25.1.34.06.09.16.13.28.13s.21-.04.27-.13c.06-.09.1-.2.1-.34v-.35Z"/>
    <path class="cls-1" d="m27.16,23.79v.73h-.45v-1.92h.74c.22,0,.4.05.53.15s.19.24.19.42c0,.1-.03.18-.08.26s-.13.13-.23.17c.12.03.2.09.25.17s.08.17.08.29v.12c0,.05,0,.11.02.17.01.06.04.11.08.14v.03h-.46s-.06-.08-.07-.14c-.01-.07-.02-.13-.02-.19v-.12c0-.09-.02-.16-.07-.21-.05-.05-.12-.07-.21-.07h-.31Zm0-.34h.29c.09,0,.16-.02.21-.06s.07-.1.07-.18-.02-.14-.07-.19c-.05-.05-.12-.07-.21-.07h-.29v.5Z"/>
    <path class="cls-1" d="m29.71,24.53v-1.92h.69c.23,0,.41.07.57.22.15.15.23.34.23.57v.34c0,.23-.08.42-.23.57-.15.15-.34.22-.57.22h-.69Zm.45-1.57v1.23h.22c.12,0,.21-.04.28-.12.07-.08.1-.19.1-.32v-.35c0-.13-.03-.24-.1-.32-.07-.08-.16-.12-.28-.12h-.22Z"/>
    <path class="cls-1" d="m32.21,24.53h-.44v-1.92h.44v1.92Z"/>
    <path class="cls-1" d="m33.83,24.02c0-.07-.02-.12-.07-.16s-.13-.08-.24-.12c-.24-.08-.42-.16-.54-.25-.12-.09-.18-.21-.18-.38s.07-.29.21-.39c.14-.1.32-.15.53-.15s.39.05.52.16.2.25.2.42h0s-.43,0-.43,0c0-.08-.03-.14-.08-.19-.05-.05-.12-.07-.21-.07s-.16.02-.21.06-.08.09-.08.15.03.1.08.13c.05.03.15.08.29.13.22.06.38.14.49.24s.17.23.17.39-.07.3-.2.4c-.13.1-.31.14-.52.14s-.41-.05-.56-.16-.24-.27-.23-.47h0s.43,0,.43,0c0,.11.03.19.09.24s.15.07.27.07c.09,0,.16-.02.21-.06s.07-.09.07-.14Z"/>
    <path class="cls-1" d="m36.12,22.95h-.51v1.57h-.45v-1.57h-.5v-.34h1.45v.34Z"/>
    <path class="cls-1" d="m37.02,23.79v.73h-.45v-1.92h.74c.22,0,.4.05.53.15s.19.24.19.42c0,.1-.03.18-.08.26s-.13.13-.23.17c.12.03.2.09.25.17s.08.17.08.29v.12c0,.05,0,.11.02.17.01.06.04.11.08.14v.03h-.46s-.06-.08-.07-.14c-.01-.07-.02-.13-.02-.19v-.12c0-.09-.02-.16-.07-.21-.05-.05-.12-.07-.21-.07h-.31Zm0-.34h.29c.09,0,.16-.02.21-.06s.07-.1.07-.18-.02-.14-.07-.19c-.05-.05-.12-.07-.21-.07h-.29v.5Z"/>
    <path class="cls-1" d="m39.09,24.53h-.44v-1.92h.44v1.92Z"/>
    <path class="cls-1" d="m39.69,24.53v-1.92h.66c.24,0,.42.04.56.13s.2.22.2.39c0,.09-.02.17-.06.24s-.11.12-.2.16c.11.03.2.08.25.15.05.08.08.17.08.27,0,.19-.06.33-.19.42-.13.1-.31.14-.54.14h-.75Zm.45-1.12h.22c.1,0,.18-.02.23-.06.05-.04.08-.09.08-.16,0-.08-.03-.14-.08-.18-.05-.04-.13-.06-.23-.06h-.21v.46Zm0,.29v.48h.31c.09,0,.17-.02.21-.06.05-.04.07-.09.07-.17,0-.08-.02-.15-.06-.19-.04-.04-.11-.06-.2-.06h-.33Z"/>
    <path class="cls-1" d="m43.26,22.61v1.26c0,.22-.07.39-.22.51-.15.12-.34.18-.57.18s-.43-.06-.58-.18c-.15-.12-.22-.29-.22-.51v-1.26h.45v1.26c0,.12.03.2.09.26s.15.08.26.08.19-.03.25-.08c.06-.06.09-.14.09-.26v-1.26h.45Z"/>
    <path class="cls-1" d="m45.16,22.95h-.51v1.57h-.45v-1.57h-.5v-.34h1.45v.34Z"/>
    <path class="cls-1" d="m46.09,24.53h-.44v-1.92h.44v1.92Z"/>
    <path class="cls-1" d="m48.27,23.74c0,.24-.07.43-.22.58-.15.15-.35.23-.59.23s-.44-.08-.59-.23c-.15-.15-.23-.35-.23-.58v-.34c0-.24.08-.43.23-.58.15-.15.35-.23.59-.23s.44.08.59.23c.15.15.23.35.23.58v.34Zm-.44-.35c0-.14-.03-.25-.1-.34-.06-.09-.16-.13-.27-.13s-.21.04-.28.13c-.06.09-.1.2-.1.34v.35c0,.14.03.25.1.34.06.09.16.13.28.13s.21-.04.27-.13c.06-.09.1-.2.1-.34v-.35Z"/>
    <path class="cls-1" d="m50.4,24.53h-.44l-.7-1.22h0v1.22h-.45v-1.92h.45l.7,1.22h0v-1.22h.44v1.92Z"/>
  </g>
</svg>