<?xml version="1.0" encoding="UTF-8"?>
<svg id="Design" xmlns="http://www.w3.org/2000/svg" viewBox="0 0 71.06 29.17">
  <defs>
    <style>
      .cls-1 {
        stroke-width: 0px;
      }
    </style>
  </defs>
  <g>
    <path class="cls-1" d="m12.46,24.18v-1.74h.57c.22,0,.38.04.5.12.12.08.18.2.18.36,0,.08-.02.16-.06.22s-.1.11-.18.15c.1.02.18.07.23.14.05.07.07.15.07.24,0,.17-.06.3-.17.38-.11.09-.28.13-.49.13h-.66Zm.4-1.01h.16c.1,0,.17-.02.22-.05s.07-.08.07-.15c0-.07-.02-.13-.07-.16s-.12-.05-.21-.05h-.17v.41Zm0,.27v.44h.26c.09,0,.15-.02.19-.05s.06-.09.06-.16c0-.07-.02-.13-.06-.17s-.1-.06-.19-.06h-.27Z"/>
    <path class="cls-1" d="m15.53,23.43h-.61v.43h.73v.31h-1.14v-1.74h1.14v.31h-.74v.37h.61v.31Z"/>
    <path class="cls-1" d="m17.27,23.71c0-.06-.02-.11-.06-.14s-.11-.07-.22-.11c-.22-.07-.38-.14-.48-.22-.1-.08-.16-.19-.16-.34s.06-.26.18-.35.28-.13.46-.13c.2,0,.36.05.48.14s.18.22.18.39h0s-.39,0-.39,0c0-.08-.02-.14-.07-.18-.04-.04-.11-.06-.2-.06-.07,0-.13.02-.17.05-.04.04-.06.08-.06.13s.02.09.07.12.12.07.24.12c.2.06.35.13.46.22.1.09.16.2.16.35s-.06.27-.18.36-.28.13-.48.13-.36-.05-.5-.14-.2-.24-.2-.44h0s.39,0,.39,0c0,.1.03.17.07.22s.13.06.23.06c.08,0,.15-.02.19-.05.04-.03.06-.08.06-.13Z"/>
    <path class="cls-1" d="m19.59,22.75h-.46v1.43h-.4v-1.43h-.45v-.31h1.32v.31Z"/>
    <path class="cls-1" d="m22.79,23.46c0,.21-.07.39-.2.53-.14.14-.31.21-.53.21s-.4-.07-.54-.21-.21-.32-.21-.53v-.31c0-.21.07-.39.2-.53.14-.14.31-.21.53-.21s.4.07.53.21c.14.14.21.32.21.53v.31Zm-.4-.32c0-.12-.03-.23-.09-.31-.06-.08-.14-.12-.25-.12s-.19.04-.25.12c-.06.08-.09.18-.09.31v.32c0,.13.03.23.09.31.06.08.14.12.25.12s.19-.04.25-.12c.06-.08.09-.18.09-.31v-.32Z"/>
    <path class="cls-1" d="m23.93,23.51v.67h-.4v-1.74h.61c.2,0,.36.05.48.14.12.09.18.22.18.38,0,.09-.02.17-.07.23-.05.06-.12.12-.21.16.11.03.18.08.23.15.05.07.07.16.07.26v.11s0,.1.02.16c.01.06.04.1.07.12v.02h-.42s-.05-.07-.06-.13-.01-.12-.01-.18v-.11c0-.08-.02-.15-.07-.19-.04-.04-.11-.07-.19-.07h-.22Zm0-.31h.2c.08,0,.14-.02.19-.06.04-.04.06-.09.06-.16s-.02-.13-.07-.17c-.04-.04-.11-.07-.19-.07h-.2v.45Z"/>
    <path class="cls-1" d="m26,24.18h-.4v-1.74h.4v1.74Z"/>
    <path class="cls-1" d="m28.17,23.94c-.06.07-.15.14-.26.19s-.25.08-.42.08c-.22,0-.39-.07-.53-.2-.13-.13-.2-.3-.2-.52v-.36c0-.21.07-.38.2-.51s.3-.2.51-.2c.22,0,.39.05.5.15.11.1.17.23.16.41h0s-.38,0-.38,0c0-.09-.02-.15-.07-.19-.05-.04-.11-.06-.21-.06s-.17.04-.23.11-.09.17-.09.29v.37c0,.12.03.22.09.29.06.07.14.11.24.11.07,0,.13,0,.18-.02.04-.01.08-.03.1-.05v-.31h-.31v-.27h.71v.69Z"/>
    <path class="cls-1" d="m29.33,24.18h-.4v-1.74h.4v1.74Z"/>
    <path class="cls-1" d="m31.57,24.18h-.4l-.64-1.09h0v1.09h-.4v-1.74h.4l.64,1.09h0v-1.09h.4v1.74Z"/>
    <path class="cls-1" d="m33.27,23.84h-.52l-.1.34h-.43l.57-1.74h.22s0,0,0,0h.22l.57,1.74h-.43l-.1-.34Zm-.42-.31h.33l-.16-.54h0l-.16.54Z"/>
    <path class="cls-1" d="m34.81,23.87h.75v.31h-1.15v-1.74h.4v1.43Z"/>
    <path class="cls-1" d="m38.28,23.65h0l.39-1.22h.53v1.74h-.4v-1.12h0s-.38,1.12-.38,1.12h-.27l-.38-1.11h0v1.11h-.4v-1.74h.53l.39,1.22Z"/>
    <path class="cls-1" d="m41.41,22.44v1.13c0,.2-.07.36-.2.47-.13.11-.3.17-.52.17s-.39-.06-.52-.17-.2-.27-.2-.47v-1.13h.4v1.13c0,.11.03.19.08.24s.13.08.23.08.17-.03.23-.08.08-.14.08-.24v-1.13h.4Z"/>
    <path class="cls-1" d="m43.06,23.71c0-.06-.02-.11-.06-.14s-.11-.07-.22-.11c-.22-.07-.38-.14-.48-.22s-.16-.19-.16-.34.06-.26.18-.35.28-.13.46-.13c.2,0,.36.05.48.14s.18.22.18.39h0s-.39,0-.39,0c0-.08-.02-.14-.07-.18-.04-.04-.11-.06-.2-.06-.07,0-.13.02-.17.05-.04.04-.06.08-.06.13s.02.09.07.12.12.07.24.12c.2.06.35.13.46.22.1.09.16.2.16.35s-.06.27-.18.36-.28.13-.48.13-.36-.05-.5-.14-.2-.24-.2-.44h0s.39,0,.39,0c0,.1.02.17.07.22s.13.06.23.06c.08,0,.15-.02.19-.05.04-.03.06-.08.06-.13Z"/>
    <path class="cls-1" d="m44.61,24.18h-.4v-1.74h.4v1.74Z"/>
    <path class="cls-1" d="m46.73,23.59h0c0,.21-.05.36-.17.46s-.28.15-.49.15-.39-.07-.52-.2c-.13-.13-.2-.3-.2-.52v-.36c0-.21.06-.38.19-.52.13-.13.29-.2.5-.2.22,0,.39.05.51.15.12.1.18.25.18.45h0s-.39,0-.39,0c0-.11-.02-.18-.07-.23-.05-.05-.12-.07-.22-.07-.09,0-.16.04-.21.11-.05.07-.07.17-.07.29v.37c0,.12.03.22.08.29.05.07.13.11.23.11.09,0,.16-.02.2-.07.04-.05.06-.12.06-.23h.39Z"/>
    <path class="cls-1" d="m49.46,23.84h-.52l-.1.34h-.43l.57-1.74h.22s0,0,0,0h.22l.57,1.74h-.43l-.1-.34Zm-.42-.31h.33l-.16-.54h0l-.16.54Z"/>
    <path class="cls-1" d="m51.95,23.56h0l.21-1.13h.41l-.4,1.74h-.38l-.29-1.07h0l-.29,1.07h-.38l-.4-1.74h.41l.21,1.13h0s.3-1.13.3-1.13h.3l.3,1.13Z"/>
    <path class="cls-1" d="m54.08,23.84h-.52l-.1.34h-.43l.57-1.74h.22s0,0,0,0h.22l.57,1.74h-.43l-.1-.34Zm-.42-.31h.33l-.16-.54h0l-.16.54Z"/>
    <path class="cls-1" d="m55.63,23.51v.67h-.4v-1.74h.61c.2,0,.36.05.48.14.12.09.18.22.18.38,0,.09-.02.17-.07.23-.05.06-.12.12-.21.16.11.03.18.08.23.15.05.07.07.16.07.26v.11s0,.1.02.16c.01.06.04.1.07.12v.02h-.42s-.05-.07-.06-.13-.01-.12-.01-.18v-.11c0-.08-.02-.15-.07-.19-.04-.04-.11-.07-.19-.07h-.22Zm0-.31h.2c.08,0,.14-.02.19-.06.04-.04.06-.09.06-.16s-.02-.13-.07-.17c-.04-.04-.11-.07-.19-.07h-.2v.45Z"/>
    <path class="cls-1" d="m57.27,24.18v-1.74h.64c.2,0,.38.07.51.2.14.13.21.3.21.51v.31c0,.21-.07.38-.21.51-.14.13-.31.2-.51.2h-.64Zm.4-1.43v1.12h.23c.09,0,.17-.04.23-.11s.09-.17.09-.29v-.32c0-.12-.03-.21-.09-.29s-.13-.11-.23-.11h-.23Z"/>
  </g>
  <g>
    <path class="cls-1" d="m7.08,3.42c.28-.27.57-.54.85-.82.06-.06.13-.16.13-.23.01-.95.64-1.42,1.39-1.78.38-.19.8-.31,1.2-.47C10.7.09,10.74.04,10.78,0c.05,0,.1,0,.14,0-.28.97-.75,1.8-1.68,2.29-.16.08-.33.18-.5.19-.58.03-.99.34-1.36.75-.08.08-.21.12-.31.18h0Z"/>
    <path class="cls-1" d="m60.25,0c.19.09.37.2.56.27.72.26,1.44.54,1.89,1.22.1.15.23.33.22.48-.04.46.24.71.54.98.17.15.33.31.49.47h0c-.11-.06-.24-.1-.31-.18-.37-.41-.79-.64-1.36-.76-.91-.19-1.49-.86-1.88-1.67-.12-.26-.2-.53-.3-.8.05,0,.1,0,.14,0Z"/>
    <path class="cls-1" d="m7.08,3.41c-.07.13-.12.26-.2.37-.14.19-.31.38-.46.56.02.02.04.05.06.07.06-.04.15-.06.17-.11.41-.8,1.13-.98,1.94-.91.44.03.87.13,1.35.2-.37.54-.83.88-1.39,1.08-.6.21-1.19.18-1.78-.07-.16-.07-.5-.05-.58.06-.54.75-1.03,1.53-1.54,2.3.04.03.09.07.13.1.06-.06.15-.12.17-.19.24-.9.96-1.17,1.75-1.3.47-.07.95-.07,1.5-.11-.33.61-.73,1.06-1.28,1.38-.56.33-1.15.48-1.82.31-.17-.04-.5.08-.57.22-.34.7-.63,1.43-.89,2.18.65-1.11,1.82-1.35,2.94-1.8-.18.75-.51,1.35-.99,1.86-.49.52-1.08.85-1.81.92-.19.02-.48.24-.51.4-.22,1.17-.38,2.35-.57,3.53.05.02.11.03.16.05.04-.08.11-.16.1-.23-.16-1.09.34-1.9,1.11-2.58.4-.35.83-.67,1.31-1.05-.05,1.24-.38,2.27-1.2,3.09-.25.25-.59.43-.91.61-.28.16-.51.36-.48.69.09,1.11.22,2.21.33,3.31,0,.03.04.06.1.17.02-.16.07-.27.04-.34-.4-.86-.13-1.65.33-2.37.39-.63.85-1.2,1.3-1.82.05.05.09.06.1.09.17,1.36-.06,2.62-.95,3.71-.24.29-.64.43-.73.85-.02.11-.06.23-.04.34.29,1.16.7,2.28,1.34,3.33-.02-.09,0-.21-.06-.28-.49-.66-.54-1.4-.33-2.15.22-.8.52-1.59.81-2.46.39.64.51,1.27.55,1.91.05.92-.13,1.8-.66,2.59-.2.3-.28.63-.05,1,.53.85,1.11,1.66,1.83,2.37.03-.02.05-.03.08-.05-.05-.09-.07-.2-.15-.25-.55-.39-.84-.96-.85-1.59-.01-.95.1-1.89.21-2.85.55.52.88,1.12,1.04,1.82.2.85.21,1.7-.1,2.54-.11.29-.06.59.22.83.73.62,1.5,1.18,2.38,1.59.06.03.13.05.23.02-.04-.05-.08-.14-.13-.15-.84-.22-1.21-.86-1.41-1.61-.18-.71-.28-1.44-.44-2.25.88.44,1.42,1.04,1.77,1.83.25.56.33,1.14.29,1.75-.04.51,0,.58.49.76.35.13.71.22,1.05.36.09.03.15.15.22.23-.03.03-.06.06-.08.1-.41-.13-.81-.26-1.22-.38-.27-.08-.51-.06-.7.19-.61.86-1.42,1.21-2.46.93-.62-.17-1.26-.29-1.82-.75.62-.6,1.32-.92,2.12-1.06.83-.15,1.54.16,2.27.48-.04-.04-.09-.07-.14-.11-.05-.03-.11-.05-.16-.08-.69-.45-1.39-.88-2.06-1.36-.42-.3-.52-.33-.93-.03-.41.3-.87.34-1.37.25-.85-.15-1.58-.52-2.23-1.08-.13-.11-.23-.26-.39-.44.78-.35,1.52-.49,2.32-.34.81.15,1.41.61,1.98,1.18-.02-.04-.03-.09-.06-.12-.59-.75-1.2-1.48-1.78-2.24-.28-.37-.43-.45-.85-.32-.53.17-1.01.01-1.44-.26-.84-.53-1.46-1.26-1.82-2.2-.02-.05-.02-.11-.03-.21.85-.1,1.59.14,2.26.61.66.46,1.08,1.13,1.43,1.84.03-.02.05-.03.08-.05-.12-.24-.25-.47-.35-.72-.33-.8-.67-1.61-.97-2.42-.15-.4-.28-.69-.81-.72-.34-.02-.72-.27-.98-.53-.75-.75-1.2-1.69-1.42-2.73-.02-.11,0-.23,0-.41,1.51.57,2.4,1.62,2.87,3.1-.01-.1-.03-.2-.04-.3-.02-.12-.03-.24-.05-.35-.06-.65-.12-1.31-.18-1.96-.03-.39-.12-.7-.57-.84-.21-.06-.42-.25-.55-.43-.83-1.15-1.02-2.46-.96-3.92.8.51,1.26,1.18,1.62,1.94.36.78.36,1.61.34,2.45.03,0,.06,0,.09,0,.02-.21.03-.43.05-.64.07-.78.17-1.57.22-2.35.02-.32,0-.64-.35-.87-.46-.3-.63-.79-.71-1.32-.14-.93-.13-1.86.07-2.78.03-.14.1-.28.16-.46.63.67,1.02,1.43,1.06,2.28.04.82-.08,1.65-.12,2.45.05-.2.1-.42.17-.65.21-.66.41-1.32.63-1.98.14-.4.17-.75-.14-1.12-.19-.22-.3-.56-.32-.85-.1-1.17.16-2.28.67-3.33.04-.08.11-.15.2-.27.78,1.66.65,3.23-.17,4.78.03,0,.06.02.09.02.1-.21.2-.43.31-.64.11-.21.22-.42.35-.63.28-.45.56-.89.84-1.33.2-.31.24-.59.04-.93-.33-.55-.25-1.15-.09-1.74.24-.94.73-1.72,1.5-2.44.17.88.11,1.68-.06,2.47-.17.81-.66,1.45-1.15,2.09.03.02.06.04.09.05.39-.46.78-.91,1.18-1.37,0,0,0,0,0,0Z"/>
    <path class="cls-1" d="m63.94,3.41c.39.46.78.92,1.17,1.38.04-.02.09-.03.13-.05-1.2-1.29-1.51-2.81-1.26-4.57.16.14.27.22.35.32.82.95,1.39,2,1.25,3.32-.02.19-.09.4-.2.56-.17.27-.16.54-.02.78.54.9,1.09,1.79,1.66,2.7-.81-1.55-.96-3.13-.16-4.79.39.5.57,1.03.66,1.58.11.62.21,1.25.21,1.88,0,.36-.16.76-.37,1.05-.21.28-.25.56-.17.83.29.97.62,1.93.96,2.9-.4-1.69-.45-3.32.88-4.8.09.41.24.74.24,1.08.01.8,0,1.6-.08,2.39-.05.48-.29.91-.74,1.18-.29.17-.3.48-.28.72.07,1.02.2,2.04.34,3.08-.12-1.79.42-3.28,1.94-4.4.15.94,0,1.78-.27,2.6-.16.48-.42.93-.69,1.36-.12.19-.35.35-.57.41-.34.09-.46.33-.49.59-.1.95-.16,1.9-.24,2.86.42-1.49,1.31-2.55,2.76-3.1.04.02.08.03.12.05-.07.32-.07.66-.21.94-.34.68-.7,1.35-1.13,1.98-.31.45-.78.71-1.38.72-.14,0-.35.2-.41.36-.47,1.15-.92,2.31-1.39,3.51.75-1.54,1.84-2.55,3.74-2.49-.1.26-.15.49-.27.69-.57.93-1.23,1.79-2.38,2.03-.23.05-.52.04-.73-.05-.32-.14-.53,0-.69.2-.65.83-1.27,1.69-1.94,2.59,1.19-1.39,2.61-1.61,4.31-.92-.22.23-.39.45-.59.61-.68.54-1.45.88-2.32.96-.43.04-.84-.05-1.17-.36-.23-.22-.45-.19-.67-.04-.83.57-1.66,1.15-2.39,1.67.59-.29,1.3-.63,2.13-.48.8.14,1.49.47,2.15,1.06-.2.13-.36.27-.54.32-.63.19-1.25.4-1.9.5-.8.12-1.36-.36-1.82-.94-.22-.29-.46-.35-.77-.25-.4.12-.8.25-1.19.37-.03-.03-.06-.07-.08-.1.08-.08.15-.19.25-.23.34-.13.7-.26,1.05-.35.41-.11.49-.37.47-.75-.09-1.24.35-2.27,1.27-3.09.15-.13.33-.24.49-.36.06-.04.13-.06.24-.11-.15,1.05-.21,2.07-.7,2.97-.22.4-.55.72-1.03.84-.08.02-.15.09-.19.21.07-.02.15-.02.21-.05.78-.52,1.58-1.03,2.34-1.58.35-.25.37-.53.24-.95-.48-1.55-.17-2.94.83-4.2.02-.02.06-.03.13-.07.1,1.09.39,2.13.16,3.21-.11.48-.35.88-.73,1.2-.09.07-.15.18-.23.27.05.04.1.08.14.11.5-.66,1-1.32,1.52-1.98.44-.56.45-1.05.07-1.71-.77-1.33-.67-2.74-.01-4.21.23.6.47,1.12.63,1.65.15.53.32,1.1.3,1.64-.02.54-.28,1.06-.37,1.62.26-.59.53-1.18.77-1.78.17-.43.26-.89.42-1.33.17-.48,0-.81-.36-1.12-1.01-.88-1.36-2.04-1.35-3.34,0-.25.02-.49.08-.75.71.91,1.57,1.71,1.8,2.88.08.39-.05.82-.08,1.22,0,.11-.02.22-.02.33h.13c.08-.51.19-1.04.25-1.57.06-.56.08-1.12.1-1.68.02-.46-.17-.68-.58-.87-.99-.45-1.5-1.3-1.8-2.29-.13-.41-.17-.85-.25-1.28l.1-.05c.42.33.87.63,1.24,1.01.37.38.74.81.94,1.28.2.46.19,1,.27,1.51.03,0,.06,0,.09,0-.04-.51-.05-1.03-.12-1.54-.08-.6-.19-1.2-.3-1.8-.08-.43-.25-.58-.69-.63-.9-.1-1.55-.6-2.04-1.32-.28-.41-.47-.89-.65-1.37,1.1.38,2.27.61,2.91,1.73-.03-.1-.04-.21-.08-.3-.24-.6-.48-1.2-.73-1.79-.11-.27-.36-.39-.61-.33-1.21.29-2.05-.27-2.78-1.12-.12-.14-.22-.31-.39-.55.54.04.99.02,1.42.11.45.09.93.21,1.29.47.33.23.51.67.75,1.01.04-.03.08-.06.12-.08-.51-.77-1-1.55-1.54-2.3-.08-.11-.44-.13-.61-.05-1.15.53-2.42-.05-3.06-.9-.02-.03-.02-.07-.03-.12,1.26-.19,2.57-.66,3.41.94l.08-.18c-.17-.2-.35-.4-.51-.61-.07-.09-.1-.21-.15-.32,0,0,0,0,0,0Z"/>
  </g>
  <g>
    <polygon class="cls-1" points="12.4 9.98 10.63 9.98 10.63 10.01 12.69 15.25 10.63 15.25 10.63 16.67 13.25 16.67 13.76 17.96 15.55 17.96 12.4 9.98"/>
    <polygon class="cls-1" points="21.71 9.98 21.71 14.93 19.63 11.97 19.63 15 21.71 17.96 23.5 17.96 23.5 9.98 21.71 9.98"/>
    <polygon class="cls-1" points="30.69 9.98 30.69 14.93 28.64 12.02 28.64 15.04 30.69 17.96 32.47 17.96 32.47 9.98 30.69 9.98"/>
    <rect class="cls-1" x="37.65" y="9.98" width="3.66" height="1.5"/>
    <path class="cls-1" d="m50.25,15.63c-.44.44-1.05.72-1.72.72-.75,0-1.42-.34-1.87-.88v2.13c.56.29,1.2.45,1.87.45,1.14,0,2.18-.46,2.92-1.22l-1.2-1.2Z"/>
    <polygon class="cls-1" points="59 9.95 57.24 12.47 55.66 10.22 55.66 13.25 56.33 14.21 56.33 17.96 58.12 17.96 58.12 14.24 61.13 9.95 59 9.95"/>
    <path class="cls-1" d="m48.52,9.8c-.67,0-1.31.16-1.87.45v2.13c.44-.54,1.12-.88,1.87-.88.66,0,1.26.27,1.7.7l1.2-1.2c-.75-.74-1.77-1.19-2.9-1.19Z"/>
    <rect class="cls-1" x="37.65" y="16.43" width="3.66" height="1.5"/>
    <rect class="cls-1" x="37.65" y="13.24" width="2.88" height="1.42"/>
  </g>
  <g>
    <path class="cls-1" d="m22.15,5.23h-1.1v1.13h-.2v-2.4h1.47v.17h-1.27v.94h1.1v.17Z"/>
    <path class="cls-1" d="m24.48,5.19h-1.08v1h1.25v.17h-1.44v-2.4h1.44v.17h-1.24v.9h1.08v.17Z"/>
    <path class="cls-1" d="m26.82,5.68h-1.05l-.24.67h-.2l.88-2.4h.19l.88,2.4h-.2l-.24-.67Zm-.99-.18h.93l-.46-1.27h0l-.46,1.27Z"/>
    <path class="cls-1" d="m29.55,4.12h-.82v2.23h-.2v-2.23h-.85v-.17h1.86v.17Z"/>
    <path class="cls-1" d="m32.12,3.95v1.6c0,.26-.08.47-.24.62-.16.15-.37.22-.62.22s-.46-.07-.61-.22c-.16-.15-.24-.35-.24-.62v-1.6h.2v1.6c0,.21.06.37.18.49.12.12.28.18.47.18s.36-.06.48-.18c.13-.12.19-.29.19-.49v-1.6h.2Z"/>
    <path class="cls-1" d="m33.39,5.26v1.09h-.2v-2.4h.8c.26,0,.45.06.59.17s.21.28.21.49c0,.13-.04.24-.11.34-.07.1-.18.17-.31.22.15.04.26.1.32.2s.1.22.1.36v.23c0,.07,0,.14.03.2.02.06.05.11.09.15v.04h-.2s-.07-.1-.09-.17-.02-.15-.02-.22v-.22c0-.15-.05-.26-.14-.35-.1-.09-.23-.13-.4-.13h-.66Zm0-.17h.58c.22,0,.38-.04.48-.13.1-.09.15-.21.15-.35,0-.16-.05-.28-.15-.37-.1-.09-.25-.13-.45-.13h-.6v.98Z"/>
    <path class="cls-1" d="m37.18,5.19h-1.08v1h1.25v.17h-1.44v-2.4h1.44v.17h-1.24v.9h1.08v.17Z"/>
    <path class="cls-1" d="m40.88,5.23h-1.1v1.13h-.2v-2.4h1.47v.17h-1.27v.94h1.1v.17Z"/>
    <path class="cls-1" d="m42.19,6.35h-.2v-2.4h.2v2.4Z"/>
    <path class="cls-1" d="m43.55,6.18h1.24v.17h-1.44v-2.4h.2v2.24Z"/>
    <path class="cls-1" d="m46.86,6.06h0l.89-2.12h.24v2.4h-.2v-2.02h0s-.86,2.02-.86,2.02h-.14l-.88-2.07h0v2.07h-.2v-2.4h.26l.89,2.12Z"/>
    <path class="cls-1" d="m50.47,5.77c0-.12-.05-.22-.15-.31-.1-.08-.26-.16-.5-.23-.26-.07-.45-.16-.58-.26s-.2-.25-.2-.43.07-.33.22-.45c.15-.12.34-.18.57-.18.24,0,.44.07.59.2s.22.3.22.51h0s-.18,0-.18,0c0-.16-.06-.29-.17-.39-.11-.1-.26-.16-.44-.16s-.33.04-.44.13c-.11.09-.16.2-.16.33,0,.12.05.22.14.3.1.08.27.15.51.22.25.07.45.16.58.27s.2.25.2.43c0,.19-.08.34-.23.45-.16.11-.35.17-.59.17s-.44-.06-.62-.18c-.18-.12-.26-.3-.26-.53h0s.18,0,.18,0c0,.19.07.32.21.41s.3.14.48.14.33-.04.45-.13c.12-.08.17-.19.17-.33Z"/>
  </g>
  <g>
    <path class="cls-1" d="m44.72,14.68h-1.09v-.19l.54-.59c.08-.09.13-.16.17-.22.03-.06.05-.12.05-.18,0-.08-.02-.14-.06-.19-.04-.05-.1-.07-.18-.07-.09,0-.16.03-.2.08-.05.05-.07.13-.07.22h-.27c0-.1.02-.19.07-.27s.11-.14.19-.18.18-.07.29-.07c.16,0,.28.04.37.12.09.08.14.19.14.33,0,.08-.02.17-.07.25s-.12.19-.22.3l-.4.42h.75v.22Z"/>
    <path class="cls-1" d="m47.66,13.99c0,.23-.04.41-.13.53-.09.12-.22.18-.4.18s-.31-.06-.39-.17c-.09-.12-.13-.29-.14-.51v-.28c0-.23.04-.41.13-.52.09-.12.22-.17.4-.17s.31.06.4.17c.09.11.13.28.13.51v.28Zm-.27-.3c0-.15-.02-.26-.06-.33-.04-.07-.11-.11-.2-.11s-.15.03-.19.1c-.04.07-.06.17-.07.31v.37c0,.15.02.26.06.34s.11.11.2.11.15-.03.19-.1c.04-.07.06-.18.07-.32v-.37Z"/>
    <path class="cls-1" d="m50.66,14.68h-1.09v-.19l.54-.59c.08-.09.13-.16.17-.22.03-.06.05-.12.05-.18,0-.08-.02-.14-.06-.19-.04-.05-.1-.07-.18-.07-.09,0-.16.03-.2.08-.05.05-.07.13-.07.22h-.27c0-.1.02-.19.07-.27s.11-.14.19-.18.18-.07.29-.07c.16,0,.28.04.37.12.09.08.14.19.14.33,0,.08-.02.17-.07.25s-.12.19-.22.3l-.4.42h.75v.22Z"/>
    <path class="cls-1" d="m53.45,14.1h.2v.22h-.2v.36h-.27v-.36h-.7v-.16s.69-1.09.69-1.09h.28v1.04Zm-.69,0h.42v-.68l-.02.04-.4.64Z"/>
  </g>
</svg>