<?xml version="1.0" encoding="UTF-8"?>
<svg id="Design" xmlns="http://www.w3.org/2000/svg" viewBox="0 0 71.33 29.27">
  <defs>
    <style>
      .cls-1 {
        stroke-width: 0px;
      }
    </style>
  </defs>
  <g>
    <path class="cls-1" d="m25.3,22.25h.47v1.38c0,.2-.07.36-.2.48s-.3.18-.5.18c-.22,0-.39-.05-.52-.16s-.19-.26-.18-.47h0s.46,0,.46,0c0,.1.02.17.07.21.05.04.1.06.17.06.06,0,.12-.03.16-.08s.07-.13.07-.22v-1.38Z"/>
    <path class="cls-1" d="m28.31,22.25v1.32c0,.23-.08.41-.23.53s-.35.19-.6.19-.45-.06-.6-.19-.23-.3-.23-.53v-1.32h.47v1.32c0,.12.03.22.1.27.06.06.15.09.27.09s.2-.03.27-.09c.06-.06.09-.15.09-.28v-1.32h.47Z"/>
    <path class="cls-1" d="m29.65,23.49v.77h-.47v-2.01h.77c.23,0,.42.05.55.16.14.11.2.26.2.44,0,.1-.03.19-.08.27-.05.07-.14.14-.24.18.12.04.21.09.27.18.05.08.08.18.08.31v.13c0,.05,0,.11.02.18.02.07.04.12.08.14v.03h-.48s-.06-.08-.07-.15c-.01-.07-.02-.14-.02-.2v-.12c0-.1-.03-.17-.08-.22s-.12-.08-.22-.08h-.32Zm0-.36h.31c.09,0,.17-.02.22-.06.05-.04.07-.1.07-.18s-.03-.15-.08-.2c-.05-.05-.12-.08-.22-.08h-.31v.52Z"/>
    <path class="cls-1" d="m32.29,23.13h0l.4-.88h.51l-.69,1.31v.71h-.47v-.73l-.67-1.28h.51l.4.88Z"/>
    <path class="cls-1" d="m36.27,23.87h-.64l-.11.39h-.47l.65-2.01h.5l.65,2.01h-.47l-.11-.39Zm-.53-.36h.43l-.21-.72h0l-.21.72Z"/>
    <path class="cls-1" d="m39.14,23.57h0l.26-1.32h.45l-.46,2.01h-.44l-.34-1.24h0l-.34,1.24h-.44l-.46-2.01h.45l.26,1.32h0l.36-1.32h.33l.36,1.32Z"/>
    <path class="cls-1" d="m41.61,23.87h-.64l-.11.39h-.47l.65-2.01h.5l.65,2.01h-.47l-.11-.39Zm-.53-.36h.43l-.21-.72h0l-.21.72Z"/>
    <path class="cls-1" d="m43.37,23.49v.77h-.47v-2.01h.77c.23,0,.42.05.55.16.14.11.2.26.2.44,0,.1-.03.19-.08.27-.05.07-.14.14-.24.18.12.04.21.09.27.18.05.08.08.18.08.31v.13c0,.05,0,.11.02.18s.04.12.08.14v.03h-.48s-.06-.08-.07-.15c-.01-.07-.02-.14-.02-.2v-.12c0-.1-.03-.17-.08-.22s-.12-.08-.22-.08h-.32Zm0-.36h.31c.09,0,.17-.02.22-.06.05-.04.07-.1.07-.18s-.03-.15-.08-.2c-.05-.05-.12-.08-.22-.08h-.31v.52Z"/>
    <path class="cls-1" d="m45.34,24.26v-2.01h.73c.24,0,.44.08.6.23.16.15.24.35.24.59v.36c0,.24-.08.44-.24.6s-.36.23-.6.23h-.73Zm.47-1.66v1.3h.23c.12,0,.22-.04.29-.13.07-.09.11-.2.11-.34v-.37c0-.14-.04-.25-.11-.34s-.17-.13-.29-.13h-.23Z"/>
  </g>
  <g>
    <path class="cls-1" d="m7.11,3.43c.29-.27.57-.54.85-.82.06-.06.13-.16.13-.24.01-.95.65-1.42,1.39-1.79.38-.19.8-.31,1.2-.47C10.74.09,10.78.04,10.82,0c.05,0,.1,0,.14,0-.28.97-.75,1.81-1.68,2.3-.16.08-.33.18-.5.19-.59.03-.99.34-1.37.75-.08.08-.21.12-.31.18h0Z"/>
    <path class="cls-1" d="m60.47,0c.19.09.37.2.56.27.73.27,1.44.54,1.89,1.23.1.15.23.33.22.48-.04.47.25.72.54.98.17.15.33.31.49.47h0c-.11-.06-.24-.1-.31-.18-.37-.41-.8-.65-1.36-.76-.91-.19-1.49-.86-1.89-1.68-.12-.26-.2-.54-.3-.8.05,0,.1,0,.14,0Z"/>
    <path class="cls-1" d="m7.1,3.42c-.07.13-.12.26-.2.38-.14.2-.31.38-.46.56.02.02.04.05.06.07.06-.04.15-.06.18-.11.41-.81,1.13-.98,1.95-.92.44.03.87.13,1.36.2-.37.54-.83.88-1.39,1.08-.6.21-1.19.18-1.79-.07-.16-.07-.5-.05-.58.06-.54.75-1.03,1.54-1.54,2.31.04.03.09.07.13.1.06-.06.15-.12.17-.19.24-.91.96-1.18,1.76-1.3.47-.07.95-.07,1.51-.11-.33.61-.74,1.07-1.28,1.38-.57.33-1.16.49-1.83.32-.17-.04-.5.08-.57.22-.35.7-.63,1.44-.89,2.19.66-1.11,1.82-1.35,2.95-1.81-.18.76-.51,1.36-.99,1.86-.49.52-1.08.85-1.82.92-.19.02-.48.24-.51.4-.22,1.17-.39,2.36-.57,3.54.05.02.11.03.16.05.04-.08.11-.16.1-.23-.16-1.1.34-1.9,1.11-2.59.4-.35.83-.67,1.32-1.06-.05,1.24-.39,2.28-1.21,3.1-.25.26-.6.43-.92.61-.28.16-.51.37-.48.69.09,1.11.22,2.22.33,3.32,0,.03.04.06.1.17.02-.16.07-.27.04-.34-.41-.87-.13-1.65.33-2.38.39-.63.86-1.21,1.3-1.82.05.05.09.06.1.09.17,1.37-.06,2.63-.95,3.72-.24.29-.64.44-.73.85-.02.11-.06.24-.04.34.29,1.17.7,2.29,1.34,3.34-.02-.09,0-.21-.06-.28-.49-.66-.54-1.41-.33-2.16.22-.81.52-1.59.81-2.47.39.65.51,1.28.55,1.92.05.93-.14,1.81-.66,2.6-.2.31-.28.63-.05,1,.53.86,1.12,1.67,1.83,2.38.03-.02.05-.03.08-.05-.05-.09-.07-.2-.15-.25-.55-.39-.85-.96-.86-1.6-.01-.95.1-1.9.21-2.86.55.52.88,1.13,1.05,1.82.2.85.21,1.7-.1,2.55-.11.29-.07.59.22.84.74.62,1.51,1.19,2.39,1.6.06.03.13.05.23.02-.04-.05-.08-.14-.13-.15-.84-.22-1.22-.86-1.42-1.62-.19-.71-.29-1.45-.44-2.26.88.44,1.42,1.05,1.77,1.84.25.56.34,1.14.29,1.75-.04.52,0,.58.49.76.35.13.71.23,1.06.36.09.03.15.15.22.23-.03.03-.06.06-.08.1-.41-.13-.82-.26-1.23-.39-.27-.08-.51-.06-.7.19-.61.86-1.43,1.22-2.47.94-.62-.17-1.26-.29-1.83-.75.62-.6,1.32-.92,2.13-1.07.83-.15,1.55.16,2.28.49-.05-.04-.09-.08-.14-.11-.05-.03-.11-.05-.16-.08-.69-.45-1.39-.89-2.06-1.37-.42-.3-.52-.33-.93-.03-.42.3-.87.34-1.37.25-.85-.15-1.59-.52-2.23-1.09-.13-.11-.23-.27-.39-.45.78-.35,1.53-.49,2.33-.34.81.15,1.42.61,1.98,1.18-.02-.04-.03-.09-.06-.13-.6-.75-1.21-1.49-1.79-2.25-.28-.37-.43-.46-.85-.32-.53.17-1.01.01-1.44-.26-.84-.54-1.47-1.26-1.83-2.21-.02-.05-.02-.11-.03-.21.86-.1,1.59.14,2.27.61.66.47,1.08,1.13,1.44,1.85.03-.02.05-.03.08-.05-.12-.24-.25-.47-.35-.72-.33-.81-.67-1.61-.98-2.43-.15-.4-.28-.7-.82-.72-.34-.02-.72-.27-.98-.53-.75-.75-1.2-1.69-1.42-2.74-.02-.11,0-.23,0-.41,1.51.57,2.41,1.63,2.88,3.11-.01-.1-.03-.2-.04-.3-.02-.12-.03-.24-.05-.36-.06-.66-.12-1.31-.18-1.97-.03-.39-.12-.71-.57-.84-.21-.06-.42-.25-.55-.43-.83-1.15-1.02-2.47-.96-3.93.8.51,1.27,1.18,1.62,1.95.36.78.36,1.62.34,2.46.03,0,.06,0,.09,0,.02-.21.03-.43.05-.64.08-.79.17-1.57.22-2.36.02-.32,0-.65-.35-.87-.47-.3-.63-.8-.71-1.32-.14-.93-.13-1.86.07-2.79.03-.15.1-.28.16-.46.63.68,1.02,1.43,1.06,2.28.04.82-.08,1.65-.12,2.46.05-.2.1-.43.17-.65.21-.66.41-1.33.64-1.98.14-.41.17-.75-.14-1.13-.19-.22-.3-.56-.33-.86-.1-1.17.16-2.29.68-3.34.04-.08.11-.15.2-.27.79,1.67.66,3.24-.17,4.8.03,0,.06.02.09.02.1-.21.2-.43.31-.64.11-.21.22-.43.35-.63.28-.45.56-.9.85-1.34.2-.31.24-.59.04-.93-.33-.55-.25-1.16-.09-1.75.24-.94.73-1.73,1.51-2.45.17.89.11,1.68-.07,2.48-.17.81-.67,1.45-1.15,2.1.03.02.06.04.09.05.39-.46.79-.91,1.18-1.37,0,0,0,0,0,0Z"/>
    <path class="cls-1" d="m64.18,3.43c.39.46.78.92,1.17,1.38.04-.02.09-.03.13-.05-1.21-1.3-1.52-2.82-1.27-4.58.16.14.27.22.36.33.82.96,1.4,2.01,1.25,3.33-.02.19-.09.4-.2.57-.17.27-.16.54-.02.78.54.91,1.1,1.8,1.66,2.71-.81-1.56-.96-3.14-.16-4.81.39.5.57,1.04.67,1.58.11.62.21,1.26.21,1.88,0,.36-.16.76-.37,1.06-.21.28-.25.56-.17.83.29.97.62,1.93.96,2.91-.4-1.7-.45-3.33.88-4.82.1.41.24.74.24,1.08.01.8,0,1.61-.08,2.4-.05.48-.29.92-.74,1.18-.29.17-.3.49-.28.73.07,1.03.2,2.05.34,3.09-.12-1.79.42-3.3,1.95-4.42.15.94,0,1.79-.27,2.61-.16.48-.42.93-.69,1.37-.12.19-.35.35-.57.41-.34.09-.46.33-.49.59-.1.95-.16,1.91-.24,2.87.42-1.49,1.31-2.56,2.77-3.11.04.02.08.03.12.05-.07.32-.07.67-.21.95-.34.68-.71,1.36-1.14,1.99-.31.45-.79.71-1.39.72-.14,0-.35.21-.41.36-.48,1.15-.92,2.32-1.39,3.52.76-1.54,1.85-2.56,3.76-2.5-.1.26-.15.5-.27.69-.57.94-1.23,1.79-2.39,2.03-.23.05-.52.04-.73-.05-.32-.14-.54,0-.69.2-.65.84-1.28,1.7-1.94,2.59,1.19-1.4,2.62-1.62,4.33-.92-.22.24-.39.45-.59.61-.68.54-1.45.89-2.33.97-.43.04-.85-.05-1.17-.36-.23-.22-.45-.19-.68-.04-.84.57-1.66,1.16-2.4,1.67.59-.29,1.3-.63,2.14-.48.8.14,1.5.47,2.15,1.07-.21.13-.36.27-.54.33-.63.19-1.26.4-1.91.5-.8.12-1.37-.37-1.82-.95-.23-.29-.46-.35-.77-.25-.4.12-.8.25-1.2.38-.03-.03-.06-.07-.08-.1.08-.08.15-.2.25-.23.35-.13.7-.26,1.06-.36.41-.11.5-.37.47-.75-.09-1.24.35-2.28,1.28-3.1.15-.13.33-.24.5-.36.06-.04.13-.06.25-.11-.15,1.05-.21,2.07-.71,2.99-.22.4-.55.73-1.03.84-.08.02-.15.09-.19.21.07-.02.15-.02.21-.05.79-.52,1.58-1.03,2.35-1.58.35-.25.37-.53.24-.95-.48-1.55-.17-2.95.84-4.22.02-.02.06-.03.13-.08.1,1.09.39,2.14.16,3.22-.11.49-.35.89-.74,1.2-.09.07-.15.18-.23.27.05.04.1.08.14.11.51-.66,1.01-1.33,1.52-1.98.44-.56.45-1.06.07-1.72-.77-1.34-.67-2.75-.01-4.23.23.6.47,1.12.63,1.66.15.54.32,1.1.3,1.64-.02.54-.28,1.06-.38,1.62.26-.6.54-1.18.77-1.79.17-.43.27-.9.42-1.34.17-.48,0-.81-.36-1.12-1.02-.88-1.37-2.05-1.35-3.35,0-.25.02-.49.08-.75.71.91,1.57,1.72,1.81,2.89.08.39-.05.82-.08,1.23,0,.11-.02.22-.02.33h.13c.08-.52.19-1.04.25-1.57.06-.56.08-1.12.1-1.69.02-.46-.17-.68-.58-.87-.99-.45-1.51-1.3-1.81-2.29-.13-.41-.17-.85-.25-1.28l.1-.05c.42.33.87.63,1.24,1.01.37.38.74.81.95,1.29.2.46.19,1.01.27,1.51.03,0,.06,0,.09,0-.04-.52-.05-1.04-.12-1.55-.08-.61-.19-1.21-.3-1.81-.08-.43-.25-.59-.69-.63-.9-.1-1.56-.6-2.05-1.32-.28-.41-.47-.89-.65-1.37,1.11.39,2.28.61,2.92,1.74-.03-.1-.04-.21-.08-.3-.24-.6-.48-1.2-.73-1.8-.11-.27-.36-.39-.61-.33-1.21.3-2.06-.27-2.79-1.13-.12-.14-.22-.31-.39-.55.54.04.99.02,1.43.11.45.09.93.21,1.29.47.33.23.51.67.76,1.01.04-.03.08-.06.12-.09-.51-.77-1-1.56-1.54-2.31-.08-.11-.44-.13-.61-.05-1.15.53-2.43-.05-3.07-.9-.02-.03-.02-.07-.03-.12,1.27-.19,2.58-.66,3.42.95l.08-.19c-.17-.2-.35-.4-.52-.61-.07-.09-.1-.21-.15-.32,0,0,0,0,0,0Z"/>
  </g>
  <g>
    <polygon class="cls-1" points="12.45 10.02 10.67 10.02 10.67 10.05 12.74 15.3 10.67 15.3 10.67 16.73 13.3 16.73 13.81 18.03 15.61 18.03 12.45 10.02"/>
    <polygon class="cls-1" points="21.79 10.02 21.79 14.99 19.71 12.02 19.71 15.06 21.79 18.03 23.58 18.03 23.58 10.02 21.79 10.02"/>
    <polygon class="cls-1" points="30.8 10.02 30.8 14.99 28.75 12.06 28.75 15.1 30.8 18.03 32.59 18.03 32.59 10.02 30.8 10.02"/>
    <rect class="cls-1" x="37.79" y="10.02" width="3.67" height="1.51"/>
    <path class="cls-1" d="m50.43,15.69c-.44.44-1.05.72-1.73.72-.76,0-1.43-.34-1.88-.88v2.14c.56.29,1.2.45,1.88.45,1.15,0,2.18-.47,2.93-1.22l-1.21-1.21Z"/>
    <polygon class="cls-1" points="59.22 9.99 57.45 12.52 55.87 10.26 55.87 13.3 56.54 14.26 56.54 18.03 58.34 18.03 58.34 14.29 61.35 9.99 59.22 9.99"/>
    <path class="cls-1" d="m48.7,9.84c-.68,0-1.31.16-1.88.45v2.14c.45-.54,1.12-.88,1.88-.88.66,0,1.27.27,1.71.7l1.21-1.21c-.75-.74-1.78-1.2-2.91-1.2Z"/>
    <rect class="cls-1" x="37.79" y="16.49" width="3.67" height="1.51"/>
    <rect class="cls-1" x="37.79" y="13.29" width="2.89" height="1.43"/>
  </g>
  <g>
    <path class="cls-1" d="m22.15,5.24h-1.17v1.13h-.2v-2.41h1.54v.17h-1.34v.94h1.17v.17Z"/>
    <path class="cls-1" d="m24.59,5.21h-1.16v1h1.33v.17h-1.53v-2.41h1.52v.17h-1.32v.91h1.16v.17Z"/>
    <path class="cls-1" d="m26.98,5.7h-1.1l-.25.67h-.21l.92-2.41h.19l.91,2.41h-.21l-.25-.67Zm-1.04-.18h.97l-.48-1.3h0l-.48,1.3Z"/>
    <path class="cls-1" d="m29.7,4.13h-.83v2.24h-.2v-2.24h-.83v-.17h1.86v.17Z"/>
    <path class="cls-1" d="m32.28,3.96v1.63c0,.26-.08.46-.24.6-.16.14-.37.21-.63.21s-.46-.07-.62-.21c-.16-.14-.24-.34-.24-.6v-1.63h.2v1.63c0,.21.06.36.18.48.12.11.28.17.48.17s.36-.06.49-.17c.12-.11.19-.27.19-.48v-1.63h.2Z"/>
    <path class="cls-1" d="m33.56,5.28v1.09h-.2v-2.41h.82c.26,0,.46.06.59.17.14.11.21.28.21.5,0,.13-.04.24-.11.34-.07.1-.18.17-.31.22.15.04.26.1.32.2.07.1.1.22.1.36v.23c0,.08,0,.14.03.2.02.06.05.11.09.15v.04h-.2s-.07-.1-.09-.17-.02-.15-.02-.22v-.22c0-.15-.05-.26-.14-.35-.1-.09-.23-.13-.4-.13h-.68Zm0-.17h.59c.22,0,.38-.04.48-.13.1-.09.15-.21.15-.36,0-.16-.05-.28-.15-.37-.1-.09-.25-.13-.45-.13h-.62v.98Z"/>
    <path class="cls-1" d="m37.46,5.21h-1.16v1h1.33v.17h-1.53v-2.41h1.52v.17h-1.32v.91h1.16v.17Z"/>
    <path class="cls-1" d="m41.24,5.24h-1.17v1.13h-.2v-2.41h1.54v.17h-1.34v.94h1.17v.17Z"/>
    <path class="cls-1" d="m42.57,6.37h-.2v-2.41h.2v2.41Z"/>
    <path class="cls-1" d="m43.94,6.2h1.19v.17h-1.39v-2.41h.2v2.24Z"/>
    <path class="cls-1" d="m46.29,3.96l.89,2.12h0l.89-2.12h.26v2.41h-.2v-1.06l.02-1.05h0s-.9,2.12-.9,2.12h-.14l-.89-2.11h0s.02,1.05.02,1.05v1.06h-.2v-2.41h.26Z"/>
    <path class="cls-1" d="m50.85,5.78c0-.13-.05-.24-.15-.32-.1-.08-.27-.16-.51-.22-.26-.07-.46-.15-.6-.26s-.2-.25-.2-.43.08-.33.23-.45c.15-.12.35-.17.59-.17s.45.07.6.21c.15.14.23.31.22.51h0s-.18,0-.18,0c0-.16-.06-.29-.17-.4-.11-.1-.27-.16-.46-.16s-.34.04-.45.13c-.11.09-.16.19-.16.32s.05.22.15.3c.1.08.27.15.52.21.26.07.46.16.59.27.14.11.2.26.2.45s-.08.35-.24.46c-.16.11-.36.17-.6.17s-.45-.06-.63-.18c-.18-.12-.27-.3-.26-.53h0s.18,0,.18,0c0,.19.07.33.21.42.14.09.31.14.5.14s.35-.04.46-.13.18-.19.18-.33Z"/>
  </g>
  <g>
    <path class="cls-1" d="m45.03,14.76h-1.09v-.19l.54-.59c.08-.09.13-.16.17-.22.03-.06.05-.12.05-.18,0-.08-.02-.14-.07-.19-.04-.05-.1-.07-.18-.07-.09,0-.16.03-.2.08-.05.05-.07.13-.07.22h-.27c0-.1.02-.19.07-.27s.11-.14.19-.18.18-.07.29-.07c.16,0,.28.04.37.12.09.08.14.19.14.33,0,.08-.02.17-.07.25s-.12.19-.22.3l-.4.42h.75v.22Z"/>
    <path class="cls-1" d="m47.98,14.08c0,.23-.04.41-.13.53-.09.12-.22.18-.4.18s-.31-.06-.4-.17c-.09-.12-.13-.29-.14-.51v-.28c0-.23.04-.41.13-.53.09-.12.22-.18.4-.18s.31.06.4.17c.09.11.13.28.13.51v.28Zm-.27-.3c0-.15-.02-.26-.06-.33-.04-.07-.11-.11-.2-.11s-.15.03-.2.1c-.04.07-.06.17-.07.31v.37c0,.15.02.26.06.34s.11.11.2.11.15-.03.19-.1c.04-.07.06-.18.07-.32v-.37Z"/>
    <path class="cls-1" d="m50.99,14.76h-1.09v-.19l.54-.59c.08-.09.13-.16.17-.22.03-.06.05-.12.05-.18,0-.08-.02-.14-.07-.19-.04-.05-.1-.07-.18-.07-.09,0-.16.03-.2.08-.05.05-.07.13-.07.22h-.27c0-.1.02-.19.07-.27s.11-.14.19-.18.18-.07.29-.07c.16,0,.28.04.37.12.09.08.14.19.14.33,0,.08-.02.17-.07.25s-.12.19-.22.3l-.4.42h.75v.22Z"/>
    <path class="cls-1" d="m53.8,14.18h.2v.22h-.2v.36h-.27v-.36h-.7v-.16s.69-1.1.69-1.1h.28v1.04Zm-.7,0h.42v-.68l-.02.04-.4.64Z"/>
  </g>
</svg>