<?xml version="1.0" encoding="UTF-8"?>
<svg id="Design" xmlns="http://www.w3.org/2000/svg" viewBox="0 0 71.15 29.2">
  <defs>
    <style>
      .cls-1 {
        stroke-width: 0px;
      }
    </style>
  </defs>
  <g>
    <path class="cls-1" d="m21.23,23.81h-.6l-.12.39h-.49l.66-2.01h.25s0,0,0,0h.25l.66,2.01h-.49l-.12-.39Zm-.49-.36h.38l-.19-.62h0l-.19.62Z"/>
    <path class="cls-1" d="m24.17,22.19v1.3c0,.23-.08.41-.23.54-.15.13-.35.2-.6.2s-.45-.07-.6-.2c-.15-.13-.23-.31-.23-.54v-1.3h.47v1.3c0,.12.03.22.1.28s.15.1.27.1.2-.03.26-.09c.06-.06.09-.16.09-.28v-1.3h.47Z"/>
    <path class="cls-1" d="m25.05,24.2v-2.01h.74c.24,0,.43.08.59.23.16.15.24.35.24.59v.36c0,.24-.08.44-.24.59-.16.15-.36.23-.59.23h-.74Zm.47-1.65v1.29h.27c.11,0,.19-.04.26-.13.07-.09.1-.2.1-.34v-.36c0-.14-.03-.25-.1-.33-.07-.09-.16-.13-.26-.13h-.27Z"/>
    <path class="cls-1" d="m27.95,24.2h-.47v-2.01h.47v2.01Z"/>
    <path class="cls-1" d="m30.04,23.34h-.71v.5h.85v.36h-1.32v-2.01h1.32v.36h-.85v.43h.71v.36Z"/>
    <path class="cls-1" d="m32.69,24.2h-.47l-.74-1.26h0v1.26h-.47v-2.01h.47l.74,1.26h0v-1.26h.47v2.01Z"/>
    <path class="cls-1" d="m35.12,23.53h0c0,.24-.06.41-.19.53-.13.12-.32.18-.57.18s-.45-.08-.6-.23c-.15-.15-.23-.35-.23-.6v-.42c0-.24.07-.44.22-.6.14-.15.34-.23.57-.23.25,0,.45.06.59.18.14.12.21.29.2.52h0s-.45,0-.45,0c0-.12-.03-.21-.08-.27s-.14-.08-.26-.08c-.1,0-.19.04-.24.13-.06.08-.08.2-.08.34v.42c0,.14.03.25.09.34s.15.13.27.13c.11,0,.18-.03.23-.08.05-.05.07-.14.07-.27h.45Z"/>
    <path class="cls-1" d="m37.12,23.34h-.71v.5h.85v.36h-1.32v-2.01h1.32v.36h-.85v.43h.71v.36Z"/>
    <path class="cls-1" d="m40.41,23.81h-.6l-.12.39h-.49l.66-2.01h.25s0,0,0,0h.25l.66,2.01h-.49l-.12-.39Zm-.49-.36h.38l-.19-.62h0l-.19.62Z"/>
    <path class="cls-1" d="m43.29,23.5h0l.24-1.3h.47l-.46,2.01h-.44l-.34-1.24h0l-.34,1.24h-.44l-.46-2.01h.47l.24,1.3h0s.34-1.3.34-1.3h.35l.34,1.3Z"/>
    <path class="cls-1" d="m45.75,23.81h-.6l-.12.39h-.49l.66-2.01h.25s0,0,0,0h.25l.66,2.01h-.49l-.12-.39Zm-.49-.36h.38l-.19-.62h0l-.19.62Z"/>
    <path class="cls-1" d="m47.53,23.43v.77h-.47v-2.01h.7c.23,0,.42.05.55.16.14.11.2.25.2.44,0,.1-.03.19-.08.27-.05.07-.14.14-.24.18.12.04.21.09.27.17.05.08.08.18.08.3v.13c0,.05,0,.11.02.18.02.07.04.12.08.14v.03h-.48s-.06-.08-.07-.15-.02-.14-.02-.2v-.12c0-.1-.03-.17-.08-.22s-.12-.08-.22-.08h-.25Zm0-.36h.24c.09,0,.17-.02.22-.06.05-.04.07-.1.07-.18s-.03-.15-.08-.2c-.05-.05-.12-.08-.22-.08h-.23v.52Z"/>
    <path class="cls-1" d="m49.43,24.2v-2.01h.74c.24,0,.43.08.59.23.16.15.24.35.24.59v.36c0,.24-.08.44-.24.59s-.36.23-.59.23h-.74Zm.47-1.65v1.29h.27c.11,0,.19-.04.26-.13.07-.09.1-.2.1-.34v-.36c0-.14-.03-.25-.1-.33-.07-.09-.16-.13-.26-.13h-.27Z"/>
  </g>
  <g>
    <path class="cls-1" d="m7.09,3.42c.28-.27.57-.54.85-.82.06-.06.13-.16.13-.24.01-.95.64-1.42,1.39-1.78.38-.19.8-.31,1.2-.47C10.71.09,10.75.04,10.79,0c.05,0,.1,0,.14,0-.28.97-.75,1.8-1.68,2.3-.16.08-.33.18-.5.19-.59.03-.99.34-1.36.75-.08.08-.21.12-.31.18h0Z"/>
    <path class="cls-1" d="m60.32,0c.19.09.37.2.56.27.72.27,1.44.54,1.89,1.22.1.15.23.33.22.48-.04.46.24.72.54.98.17.15.33.31.49.47h0c-.11-.06-.24-.1-.31-.18-.37-.41-.79-.65-1.36-.76-.91-.19-1.49-.86-1.88-1.68-.12-.26-.2-.53-.3-.8.05,0,.1,0,.14,0Z"/>
    <path class="cls-1" d="m7.08,3.41c-.07.13-.12.26-.2.37-.14.19-.31.38-.46.56.02.02.04.05.06.07.06-.04.15-.06.18-.11.41-.81,1.13-.98,1.94-.92.44.03.87.13,1.35.2-.37.54-.83.88-1.39,1.08-.6.21-1.19.18-1.78-.07-.16-.07-.5-.05-.58.06-.54.75-1.03,1.53-1.54,2.3.04.03.09.07.13.1.06-.06.15-.12.17-.19.24-.9.96-1.17,1.76-1.3.47-.07.95-.07,1.5-.11-.33.61-.74,1.07-1.28,1.38-.56.33-1.15.49-1.82.31-.17-.04-.5.08-.57.22-.35.7-.63,1.44-.89,2.18.66-1.11,1.82-1.35,2.94-1.8-.18.76-.51,1.35-.99,1.86-.49.52-1.08.85-1.81.92-.19.02-.48.24-.51.4-.22,1.17-.39,2.35-.57,3.53.05.02.11.03.16.05.04-.08.11-.16.1-.23-.16-1.09.34-1.9,1.11-2.58.4-.35.83-.67,1.31-1.06-.05,1.24-.38,2.27-1.21,3.09-.25.25-.59.43-.91.61-.28.16-.51.36-.48.69.09,1.11.22,2.21.33,3.32,0,.03.04.06.1.17.02-.16.07-.27.04-.34-.4-.87-.13-1.65.33-2.38.39-.63.86-1.21,1.3-1.82.05.05.09.06.1.09.17,1.36-.06,2.62-.95,3.71-.24.29-.64.43-.73.85-.02.11-.06.24-.04.34.29,1.16.7,2.28,1.34,3.33-.02-.09,0-.21-.06-.28-.49-.66-.54-1.4-.33-2.15.22-.8.52-1.59.81-2.46.39.64.51,1.27.55,1.91.05.93-.13,1.8-.66,2.6-.2.31-.28.63-.05,1,.53.85,1.11,1.66,1.83,2.37.03-.02.05-.03.08-.05-.05-.09-.07-.2-.15-.25-.55-.39-.85-.96-.85-1.59-.01-.95.1-1.9.21-2.85.55.52.88,1.13,1.04,1.82.2.85.21,1.7-.1,2.54-.11.29-.06.59.22.83.73.62,1.5,1.19,2.38,1.59.06.03.13.05.23.02-.04-.05-.08-.14-.13-.15-.84-.22-1.22-.86-1.41-1.61-.18-.71-.28-1.45-.44-2.26.88.44,1.42,1.04,1.77,1.84.25.56.33,1.14.29,1.75-.04.52,0,.58.49.76.35.13.71.22,1.05.36.09.03.15.15.22.23-.03.03-.06.06-.08.1-.41-.13-.81-.26-1.22-.38-.27-.08-.51-.06-.7.19-.61.86-1.43,1.21-2.46.93-.62-.17-1.26-.29-1.82-.75.62-.6,1.32-.92,2.12-1.06.83-.15,1.54.16,2.28.49-.04-.04-.09-.07-.14-.11-.05-.03-.11-.05-.16-.08-.69-.45-1.39-.89-2.06-1.36-.42-.3-.52-.33-.93-.03-.41.3-.87.34-1.37.25-.85-.15-1.59-.52-2.23-1.08-.13-.11-.23-.26-.39-.44.78-.35,1.52-.49,2.33-.34.81.15,1.41.61,1.98,1.18-.02-.04-.03-.09-.06-.12-.6-.75-1.2-1.49-1.78-2.25-.28-.37-.43-.45-.85-.32-.53.17-1.01.01-1.44-.26-.84-.53-1.46-1.26-1.82-2.2-.02-.05-.02-.11-.03-.21.85-.1,1.59.14,2.26.61.66.47,1.08,1.13,1.43,1.84.03-.02.05-.03.08-.05-.12-.24-.25-.47-.35-.72-.33-.8-.67-1.61-.98-2.42-.15-.4-.28-.69-.81-.72-.34-.02-.72-.27-.98-.53-.75-.75-1.2-1.69-1.42-2.73-.02-.11,0-.23,0-.41,1.51.57,2.4,1.62,2.87,3.1-.01-.1-.03-.2-.04-.3-.02-.12-.03-.24-.05-.36-.06-.66-.12-1.31-.18-1.97-.03-.39-.12-.71-.57-.84-.21-.06-.42-.25-.55-.43-.83-1.15-1.02-2.46-.96-3.92.8.51,1.26,1.18,1.62,1.95.36.78.36,1.62.34,2.45.03,0,.06,0,.09,0,.02-.21.03-.43.05-.64.07-.78.17-1.57.22-2.35.02-.32,0-.65-.35-.87-.47-.3-.63-.8-.71-1.32-.14-.93-.13-1.86.07-2.78.03-.14.1-.28.16-.46.63.68,1.02,1.43,1.06,2.28.04.82-.08,1.65-.12,2.46.05-.2.1-.42.17-.65.21-.66.41-1.32.63-1.98.14-.41.17-.75-.14-1.12-.19-.22-.3-.56-.32-.85-.1-1.17.16-2.28.68-3.33.04-.08.11-.15.2-.27.79,1.66.65,3.23-.17,4.79.03,0,.06.02.09.02.1-.21.2-.43.31-.64.11-.21.22-.42.35-.63.28-.45.56-.89.84-1.33.2-.31.24-.59.04-.93-.33-.55-.25-1.15-.09-1.74.24-.94.73-1.72,1.51-2.44.17.89.11,1.68-.06,2.47-.17.81-.67,1.45-1.15,2.1.03.02.06.04.09.05.39-.46.79-.91,1.18-1.37,0,0,0,0,0,0Z"/>
    <path class="cls-1" d="m64.02,3.42c.39.46.78.92,1.17,1.38.04-.02.09-.03.13-.05-1.2-1.29-1.51-2.81-1.27-4.57.16.14.27.22.35.32.82.95,1.39,2.01,1.25,3.32-.02.19-.09.4-.2.56-.17.27-.16.54-.02.78.54.9,1.09,1.79,1.66,2.7-.81-1.55-.96-3.13-.16-4.8.39.5.57,1.03.67,1.58.11.62.21,1.25.21,1.88,0,.36-.16.76-.37,1.05-.21.28-.25.56-.17.83.29.97.62,1.93.96,2.9-.4-1.69-.45-3.33.88-4.8.1.41.24.74.24,1.08.01.8,0,1.6-.08,2.4-.05.48-.29.91-.74,1.18-.29.17-.3.49-.28.73.07,1.02.2,2.04.34,3.09-.12-1.79.42-3.29,1.94-4.41.15.94,0,1.79-.27,2.6-.16.48-.42.93-.69,1.36-.12.19-.35.35-.57.41-.34.09-.46.33-.49.59-.1.95-.16,1.9-.24,2.87.42-1.49,1.31-2.55,2.76-3.1.04.02.08.03.12.05-.07.32-.07.67-.21.95-.34.68-.7,1.36-1.13,1.98-.31.45-.79.71-1.38.72-.14,0-.35.21-.41.36-.47,1.15-.92,2.32-1.39,3.51.75-1.54,1.84-2.56,3.75-2.49-.1.26-.15.49-.27.69-.57.94-1.23,1.79-2.38,2.03-.23.05-.52.04-.73-.05-.32-.14-.53,0-.69.2-.65.84-1.27,1.69-1.94,2.59,1.19-1.4,2.61-1.61,4.32-.92-.22.23-.39.45-.59.61-.68.54-1.45.88-2.32.97-.43.04-.85-.05-1.17-.36-.23-.22-.45-.19-.67-.04-.83.57-1.66,1.16-2.4,1.67.59-.29,1.3-.63,2.13-.48.8.14,1.49.47,2.15,1.06-.21.13-.36.27-.54.32-.63.19-1.26.4-1.9.5-.8.12-1.36-.37-1.82-.94-.23-.29-.46-.35-.77-.25-.4.12-.8.25-1.19.37-.03-.03-.06-.07-.08-.1.08-.08.15-.19.25-.23.35-.13.7-.26,1.05-.35.41-.11.5-.37.47-.75-.09-1.24.35-2.27,1.28-3.1.15-.13.33-.24.5-.36.06-.04.13-.06.25-.11-.15,1.05-.21,2.07-.71,2.98-.22.4-.55.72-1.03.84-.08.02-.15.09-.19.21.07-.02.15-.02.21-.05.79-.52,1.58-1.03,2.34-1.58.35-.25.37-.53.24-.95-.48-1.55-.17-2.95.83-4.21.02-.02.06-.03.13-.07.1,1.09.39,2.14.16,3.22-.11.48-.35.88-.73,1.2-.09.07-.15.18-.23.27.05.04.1.08.14.11.51-.66,1.01-1.33,1.52-1.98.44-.56.45-1.05.07-1.71-.77-1.33-.67-2.74-.01-4.22.23.6.47,1.12.63,1.65.15.53.32,1.1.3,1.64-.02.54-.28,1.06-.37,1.62.26-.59.53-1.18.77-1.78.17-.43.26-.89.42-1.33.17-.48,0-.81-.36-1.12-1.01-.88-1.36-2.04-1.35-3.34,0-.25.02-.49.08-.75.71.91,1.57,1.71,1.8,2.88.08.39-.05.82-.08,1.23,0,.11-.02.22-.02.33h.13c.08-.51.19-1.04.25-1.57.06-.56.08-1.12.1-1.68.02-.46-.17-.68-.58-.87-.99-.45-1.5-1.3-1.81-2.29-.13-.41-.17-.85-.25-1.28l.1-.05c.42.33.87.63,1.24,1.01.37.38.74.81.95,1.28.2.46.19,1,.27,1.51.03,0,.06,0,.09,0-.04-.52-.05-1.03-.12-1.55-.08-.6-.19-1.2-.3-1.8-.08-.43-.25-.58-.69-.63-.9-.1-1.56-.6-2.04-1.32-.28-.41-.47-.89-.65-1.37,1.1.38,2.27.61,2.92,1.73-.03-.1-.04-.21-.08-.3-.24-.6-.48-1.2-.73-1.79-.11-.27-.36-.39-.61-.33-1.21.29-2.05-.27-2.78-1.12-.12-.14-.22-.31-.39-.55.54.04.99.02,1.42.11.45.09.93.21,1.29.47.33.23.51.67.76,1.01.04-.03.08-.06.12-.09-.51-.77-1-1.56-1.54-2.3-.08-.11-.44-.13-.61-.05-1.15.53-2.43-.05-3.06-.9-.02-.03-.02-.07-.03-.12,1.26-.19,2.57-.66,3.42.94l.08-.18c-.17-.2-.35-.4-.52-.61-.07-.09-.1-.21-.15-.32,0,0,0,0,0,0Z"/>
  </g>
  <g>
    <polygon class="cls-1" points="12.42 10 10.64 10 10.64 10.02 12.71 15.26 10.64 15.26 10.64 16.69 13.27 16.69 13.78 17.98 15.57 17.98 12.42 10"/>
    <polygon class="cls-1" points="21.73 10 21.73 14.95 19.66 11.99 19.66 15.02 21.73 17.98 23.52 17.98 23.52 10 21.73 10"/>
    <polygon class="cls-1" points="30.72 10 30.72 14.95 28.67 12.03 28.67 15.06 30.72 17.98 32.51 17.98 32.51 10 30.72 10"/>
    <rect class="cls-1" x="37.69" y="10" width="3.67" height="1.5"/>
    <path class="cls-1" d="m50.3,15.65c-.44.44-1.05.72-1.72.72-.75,0-1.43-.34-1.87-.88v2.13c.56.29,1.2.45,1.87.45,1.14,0,2.18-.47,2.93-1.22l-1.2-1.2Z"/>
    <polygon class="cls-1" points="59.07 9.96 57.3 12.48 55.73 10.24 55.73 13.27 56.4 14.23 56.4 17.98 58.19 17.98 58.19 14.26 61.2 9.96 59.07 9.96"/>
    <path class="cls-1" d="m48.58,9.82c-.67,0-1.31.16-1.87.45v2.13c.45-.54,1.12-.88,1.87-.88.66,0,1.26.27,1.7.7l1.2-1.2c-.75-.74-1.77-1.19-2.9-1.19Z"/>
    <rect class="cls-1" x="37.69" y="16.45" width="3.67" height="1.5"/>
    <rect class="cls-1" x="37.69" y="13.26" width="2.89" height="1.42"/>
  </g>
  <g>
    <path class="cls-1" d="m22.17,5.23h-1.11v1.13h-.2v-2.41h1.47v.17h-1.27v.94h1.11v.17Z"/>
    <path class="cls-1" d="m24.51,5.19h-1.08v1h1.25v.17h-1.45v-2.41h1.44v.17h-1.24v.9h1.08v.17Z"/>
    <path class="cls-1" d="m26.85,5.69h-1.06l-.24.67h-.2l.88-2.41h.19l.88,2.41h-.2l-.24-.67Zm-.99-.18h.93l-.46-1.28h0l-.46,1.28Z"/>
    <path class="cls-1" d="m29.59,4.12h-.82v2.24h-.2v-2.24h-.85v-.17h1.86v.17Z"/>
    <path class="cls-1" d="m32.16,3.95v1.6c0,.26-.08.47-.24.62-.16.15-.37.22-.62.22s-.46-.07-.62-.22c-.16-.15-.24-.36-.24-.62v-1.6h.2v1.6c0,.21.06.37.18.49.12.12.28.18.47.18s.36-.06.48-.18c.13-.12.19-.29.19-.49v-1.6h.2Z"/>
    <path class="cls-1" d="m33.43,5.27v1.09h-.2v-2.4h.8c.26,0,.46.06.59.17s.21.28.21.49c0,.13-.04.24-.11.34-.07.1-.18.17-.31.22.15.04.26.1.32.2s.1.22.1.36v.23c0,.07,0,.14.03.2.02.06.05.11.09.15v.04h-.2s-.07-.1-.09-.17-.02-.15-.02-.22v-.22c0-.15-.05-.26-.14-.35-.1-.09-.23-.13-.4-.13h-.66Zm0-.17h.58c.22,0,.38-.04.48-.13.1-.09.15-.21.15-.35,0-.16-.05-.28-.15-.37-.1-.09-.25-.13-.45-.13h-.6v.98Z"/>
    <path class="cls-1" d="m37.22,5.19h-1.08v1h1.25v.17h-1.45v-2.41h1.44v.17h-1.24v.9h1.08v.17Z"/>
    <path class="cls-1" d="m40.93,5.23h-1.11v1.13h-.2v-2.41h1.47v.17h-1.27v.94h1.11v.17Z"/>
    <path class="cls-1" d="m42.24,6.36h-.2v-2.41h.2v2.41Z"/>
    <path class="cls-1" d="m43.6,6.19h1.24v.17h-1.44v-2.41h.2v2.24Z"/>
    <path class="cls-1" d="m46.91,6.07h0l.9-2.12h.24v2.41h-.2v-2.02h0s-.86,2.02-.86,2.02h-.14l-.88-2.07h0v2.07h-.2v-2.41h.26l.89,2.12Z"/>
    <path class="cls-1" d="m50.53,5.77c0-.12-.05-.23-.15-.31-.1-.08-.26-.16-.5-.23-.26-.07-.45-.16-.59-.26s-.2-.25-.2-.43.07-.34.22-.45c.15-.12.34-.18.57-.18.24,0,.44.07.59.2s.22.3.22.51h0s-.18,0-.18,0c0-.16-.06-.29-.17-.39-.12-.1-.26-.16-.45-.16s-.33.04-.44.13c-.11.09-.16.2-.16.33,0,.12.05.22.14.3.1.08.27.15.51.22.25.07.45.16.58.27s.2.25.2.43c0,.19-.08.34-.23.45-.16.11-.35.17-.59.17s-.44-.06-.62-.18c-.18-.12-.26-.3-.26-.53h0s.18,0,.18,0c0,.19.07.32.21.42s.3.14.48.14.33-.04.45-.13c.12-.08.17-.19.17-.33Z"/>
  </g>
  <g>
    <path class="cls-1" d="m44.91,14.73h-1.09v-.19l.54-.59c.08-.09.13-.16.17-.22.03-.06.05-.12.05-.18,0-.08-.02-.14-.06-.19-.04-.05-.1-.07-.18-.07-.09,0-.16.03-.2.08-.05.05-.07.13-.07.22h-.27c0-.1.02-.19.07-.27s.11-.14.19-.18.18-.07.29-.07c.16,0,.28.04.37.12.09.08.14.19.14.33,0,.08-.02.17-.07.25s-.12.19-.22.3l-.4.42h.75v.22Z"/>
    <path class="cls-1" d="m47.85,14.05c0,.23-.04.41-.13.53-.09.12-.22.18-.4.18s-.31-.06-.4-.17c-.09-.12-.13-.29-.14-.51v-.28c0-.23.04-.41.13-.52.09-.12.22-.17.4-.17s.31.06.4.17c.09.11.13.28.13.51v.28Zm-.27-.3c0-.15-.02-.26-.06-.33-.04-.07-.11-.11-.2-.11s-.15.03-.19.1c-.04.07-.06.17-.07.31v.37c0,.15.02.26.06.34s.11.11.2.11.15-.03.19-.1c.04-.07.06-.18.07-.32v-.37Z"/>
    <path class="cls-1" d="m50.86,14.73h-1.09v-.19l.54-.59c.08-.09.13-.16.17-.22.03-.06.05-.12.05-.18,0-.08-.02-.14-.06-.19-.04-.05-.1-.07-.18-.07-.09,0-.16.03-.2.08-.05.05-.07.13-.07.22h-.27c0-.1.02-.19.07-.27s.11-.14.19-.18.18-.07.29-.07c.16,0,.28.04.37.12.09.08.14.19.14.33,0,.08-.02.17-.07.25s-.12.19-.22.3l-.4.42h.75v.22Z"/>
    <path class="cls-1" d="m53.66,14.15h.2v.22h-.2v.36h-.27v-.36h-.7v-.16s.69-1.09.69-1.09h.28v1.04Zm-.69,0h.42v-.68l-.02.04-.4.64Z"/>
  </g>
</svg>