<?xml version="1.0" encoding="UTF-8"?>
<svg id="Design" xmlns="http://www.w3.org/2000/svg" viewBox="0 0 56.49 37.14">
  <defs>
    <style>
      .cls-1 {
        stroke-width: 0px;
      }
    </style>
  </defs>
  <polygon class="cls-1" points="0 28.54 .67 28.54 .67 26.9 2.5 26.9 2.5 26.3 .67 26.3 .67 25.35 2.55 25.35 2.55 24.75 0 24.75 0 28.54 0 28.54"/>
  <polygon class="cls-1" points="3.29 28.54 5.91 28.54 5.91 27.94 3.95 27.94 3.95 26.9 5.85 26.9 5.85 26.31 3.95 26.31 3.95 25.34 5.91 25.34 5.91 24.75 3.29 24.75 3.29 28.54 3.29 28.54"/>
  <path class="cls-1" d="m7.67,26.27c-.27-.02-.43-.07-.43-.42,0-.4.07-.54.83-.54.57,0,.86.05.86.5h.66c0-.87-.59-1.1-1.51-1.1-1,0-1.51.27-1.51,1.16,0,1.25,1.13,1.02,1.96,1.08.28.02.43.07.43.44,0,.42-.12.6-.85.6-.68,0-.87-.12-.87-.5h-.67c0,.88.61,1.1,1.53,1.1,1.03,0,1.53-.38,1.54-1.23,0-1.26-1.13-1.02-1.96-1.09h0Z"/>
  <polygon class="cls-1" points="9.95 25.35 11.1 25.35 11.1 28.54 11.77 28.54 11.77 25.35 12.93 25.35 12.93 24.75 9.95 24.75 9.95 25.35 9.95 25.35"/>
  <polygon class="cls-1" points="13.46 28.54 14.13 28.54 14.13 24.74 13.46 24.74 13.46 28.54 13.46 28.54"/>
  <polygon class="cls-1" points="17.38 24.75 16.34 27.69 15.3 24.75 14.58 24.75 16 28.54 16.66 28.54 18.09 24.75 17.38 24.75 17.38 24.75"/>
  <path class="cls-1" d="m19.31,24.75l-1.47,3.79h.7l.35-.97h1.48l.35.97h.73l-1.46-3.79h-.69Zm-.21,2.25l.54-1.5.53,1.5h-1.06Z"/>
  <polygon class="cls-1" points="22.61 24.75 21.93 24.75 21.93 28.54 24.49 28.54 24.49 27.94 22.61 27.94 22.61 24.75 22.61 24.75"/>
  <path class="cls-1" d="m27.64,24.75h-1.41v3.8h1.41c.71,0,1.11-.11,1.39-.51.2-.3.25-.64.25-1.38s-.05-1.09-.25-1.38c-.27-.4-.68-.52-1.39-.52h0Zm-.03,3.19h-.72v-2.59h.71c.76,0,1,.05,1,1.3s-.23,1.29-1,1.29h0Z"/>
  <polygon class="cls-1" points="30.08 28.54 32.69 28.54 32.69 27.94 30.74 27.94 30.74 26.9 32.63 26.9 32.63 26.31 30.74 26.31 30.74 25.34 32.69 25.34 32.69 24.75 30.08 24.75 30.08 28.54 30.08 28.54"/>
  <path class="cls-1" d="m36.23,25.32c.65,0,.81.11.81.49h.66c0-.86-.56-1.1-1.42-1.1-1.59,0-1.6.85-1.6,1.94s.01,1.95,1.6,1.95c.86,0,1.42-.24,1.42-1.1h-.66c0,.38-.16.49-.81.49-.76,0-.88-.24-.88-1.32s.12-1.33.88-1.33h0Z"/>
  <path class="cls-1" d="m39.45,24.75l-1.47,3.79h.7l.35-.97h1.48l.35.97h.73l-1.46-3.79h-.69Zm-.21,2.25l.53-1.5.53,1.5h-1.06Z"/>
  <polygon class="cls-1" points="44.34 27.45 42.76 24.75 42.08 24.75 42.08 28.54 42.7 28.54 42.7 25.82 44.28 28.54 44.97 28.54 44.97 24.75 44.34 24.75 44.34 27.45 44.34 27.45"/>
  <polygon class="cls-1" points="48.38 27.45 46.8 24.75 46.12 24.75 46.12 28.54 46.74 28.54 46.74 25.82 48.32 28.54 49.01 28.54 49.01 24.75 48.38 24.75 48.38 27.45 48.38 27.45"/>
  <polygon class="cls-1" points="50.16 28.54 52.77 28.54 52.77 27.94 50.82 27.94 50.82 26.9 52.71 26.9 52.71 26.31 50.82 26.31 50.82 25.34 52.77 25.34 52.77 24.75 50.16 24.75 50.16 28.54 50.16 28.54"/>
  <path class="cls-1" d="m54.53,26.27c-.27-.02-.43-.07-.43-.42,0-.4.07-.54.83-.54.57,0,.86.05.86.5h.66c0-.87-.59-1.1-1.51-1.1-1,0-1.51.27-1.51,1.16,0,1.25,1.13,1.02,1.96,1.08.28.02.43.07.43.44,0,.42-.12.6-.85.6-.68,0-.86-.12-.86-.5h-.67c0,.88.61,1.1,1.53,1.1,1.03,0,1.53-.38,1.53-1.23,0-1.26-1.13-1.02-1.96-1.09h0Z"/>
  <path class="cls-1" d="m28.25,0C17.41,0,8.7,4.82,8.7,10.66s8.62,10.66,19.54,10.66,19.54-4.82,19.54-10.66S39.06,0,28.25,0h0Zm-.02,20.76c-9.97,0-18.5-4.62-18.5-10.11S18.45.44,28.23.44s18.49,4.72,18.49,10.21-8.59,10.11-18.49,10.11h0Z"/>
  <path class="cls-1" d="m42.98,9.33c-.6.12-1.16.31-1.73.49-.37.11-.74.21-1.14.28h-.16s.07-.11.07-.11c.05-.06.11-.11.17-.17.57-.56,1.22-1.04,1.82-1.59.19-.22.6-.39.47-.78-.12-.06-.45.07-.61.14-1.16.6-2.23,1.28-3.22,2.21-.03.03-.06.05-.09.08-.56.42-.66,1.4-1.5,1.34-.53-.05-.61-.04-.81-.12.85-.66,2.49-2.83,2.64-3.35,0,0,.15-.47-.06-.45-.78.28-1.52.95-2.13,1.48.06-.26.48-.77.28-1.07-1.35.29-3.26,2.1-3.27,2.1-.36.24-.5,1.01-1.06.9-.35-.05-.78-.05-.99-.17.36-.22.71-.46,1.05-.72.78-.6,1.51-1.29,2.25-1.95.04-.1.29-.19.15-.34-.24-.19-.51.09-.77.13-1.17.51-1.96,1.2-2.74,2.16-.15.18-.36.41-.49.61-.55-.06-.85-.04-1.12-.21.17-.14.33-.27.5-.4.9-.71,1.82-1.42,2.51-2.48-.07-.36-.43-.07-.6,0-1.23.61-2.24,1.36-3.02,2.54-.05.07-.09.15-.14.23-.54-.01-1.01-.12-1.48-.23-.01,0-.02,0-.03,0v-.05c1.18-.6,2.23-1.64,3.05-2.86,0,0,.67-1.18-.81-.21-1.1.71-2.11,1.65-2.82,2.98,0,0-.74.03-.74-.05.72-.88,1.55-2.01,1.97-3.17.04-.18.15-.56-.12-.6-1,.42-1.65,1.59-2.19,2.68-.16.32-.25.73-.4,1.03-.67-.03-1.12.03-1.76-.16.8-.7,1.68-1.28,2.41-2.13.12-.23.94-.79.92-1.52-.25-.16-.51.03-.67.14l-2.25,1.79h-.12c.36-.63,1.14-1.57,1.46-2.23.11-.22.24-.42.23-.69l-.2-.06c-1.63.7-3.03,2.29-3.57,4.34-.13.19-.2.56-.48.45-.04-.56-.21-1.08-.4-1.58-.7-1.46-1.7-2.52-2.97-3.29-.21-.12-.33.11-.26.28.18,1.02.81,1.67,1.25,2.45.52.8,1.22,1.53,1.81,2.25-.2.07-4.82,1.17-5.64,1.84-.43.24-1.12.79-1.11,2,.04.36.28.71.6.81.3.04.51.07.71-.06.85-1.09,1.84-2.08,2.94-2.74.75-.39,1.31-.78,2.18-.89.36.33.59.77,1.08,1.18.96.88,1.8,1.47,3.13,1.69l.13-.04-.05-.12c-.7-1.02-1.77-1.66-2.87-2.2-.19-.14-.64-.38-.67-.67.68-.23,1.57-.29,2.39-.1.97,1.68,2.04,3.53,3.6,4.59.12.03.2-.13.14-.24-1.08-2.63-1.77-2.86-2.87-4.07-.06-.09-.14-.3.02-.37h1.03c.33.06.79-.03.87.11.05,1.74,1.17,3.06,1.84,4.38,0,0,.22.13.2-.1h0c-.28-3.07-1.42-3.77-1.59-4.3.18-.01.37,0,.51.08.73,1.48,1.71,2.59,3.01,3.43.03.02.19.04.08-.2-.38-1.27-1.54-1.92-2.3-2.88l-.13-.25.15-.02c.32.06.76.14,1,.29.43.83,1.01,1.47,1.64,2.06.51.46.95,1.01,1.73,1.16h.08s.02-.08.02-.08l-.02-.1c-.48-1.26-1.78-1.79-2.69-2.67-.06-.06-.18-.28,0-.32l1.47.21c2.22,2.96,3.07,2.84,3.07,2.84,0,0,.66.15.36-.33-.72-.75-1.35-1.1-2.22-1.78-.15-.15-.54-.41-.5-.68.32.05.37.04,1.01.12.2.03.48.06.63.13,1.16.52,1.26,2.14,4.07,2.48.1,0,.12-.13.05-.21-.8-.62-2.9-2.03-3.02-2.19.27.02,1.39.18,1.57.27,1.41.76,2.28,1.33,4.3,1.06.17-.25-.11-.36-.35-.45l-1.14-.44c-.15-.05-.78-.17-1.01-.24,1.21-.38,2.81-.82,3.87-1.47.17-.13.37-.24.53-.38.11-.1.21-.22.27-.38.06-.18-.22-.1-.22-.1h0Zm-20.34.21c-.13-.08-.03-.23.01-.3.04-.05.47-.83.86-.63.07.19-.6.97-.87.93h0Zm12.99,1.45l-1.89-.24c1.1-.39,1.99-1.14,2.51-1.44l-.29.51c-.21.35-.06.85-.34,1.18h0Zm2.38.28c-.02-.2.22-.38.37-.52.63-.52.73-.01.73-.01-.29.23-.7.49-1.1.54h0Z"/>
  <path class="cls-1" d="m7.53,30.47c-.11-.11-.32-.16-.61-.16-.54,0-.84.21-.9.62h.41c.01-.09.05-.16.11-.19.06-.03.17-.05.32-.05.17,0,.28.03.32.08.05.05.06.15.04.29-.02.11-.05.19-.09.23-.05.05-.12.09-.23.13-.16.04-.31.09-.47.13-.17.05-.3.12-.39.2-.12.1-.19.25-.21.45l-.09.61h1.66l.05-.37h-1.23l.02-.17c.02-.13.05-.22.1-.26.05-.04.17-.09.35-.14.33-.09.54-.17.64-.23.17-.12.28-.31.32-.58.04-.28,0-.47-.12-.58h0Zm2.26.49c0-.21-.05-.36-.15-.46-.12-.12-.31-.18-.59-.18s-.49.06-.64.18c-.13.1-.22.26-.28.46-.03.1-.06.31-.11.61-.04.31-.06.51-.06.61,0,.21.05.37.15.47.11.13.31.19.6.19s.49-.06.64-.18c.12-.1.22-.25.28-.46.03-.11.07-.32.12-.63.04-.31.06-.51.06-.61h0Zm-.62,1.29c-.06.14-.2.21-.42.21s-.34-.07-.36-.21c-.02-.08,0-.31.05-.67.05-.36.1-.58.14-.67.06-.14.2-.21.42-.21s.34.07.36.21c.01.08,0,.31-.05.67-.05.36-.1.59-.13.67h0Zm2.6-1.77c-.11-.11-.32-.16-.61-.16-.54,0-.84.21-.9.62h.41c.01-.09.05-.16.11-.19.06-.03.17-.05.32-.05.17,0,.28.03.32.08.05.05.06.15.04.29-.02.11-.05.19-.09.23-.05.05-.12.09-.23.13-.16.04-.31.09-.47.13-.17.05-.3.12-.39.2-.12.1-.19.25-.21.45l-.09.61h1.66l.05-.37h-1.23l.02-.17c.02-.13.05-.22.1-.26.05-.04.17-.09.35-.14.33-.09.54-.17.64-.23.17-.12.28-.31.32-.58.04-.28,0-.47-.12-.58h0Zm2.15,1.34h-.35l.21-1.47h-.4l-1.27,1.5-.05.35h1.07l-.09.62h.39l.09-.62h.35l.05-.37h0Zm-1.37,0l.75-.91-.13.91h-.62Zm4.75-.89c-.01-.2-.08-.35-.21-.44-.14-.11-.37-.16-.69-.16s-.56.06-.73.17c-.15.09-.26.24-.33.44-.04.13-.09.34-.13.65-.04.3-.06.52-.05.65.01.2.08.36.2.45.14.11.37.17.69.17.44,0,.75-.11.92-.34.12-.16.21-.47.27-.93.04-.3.06-.52.05-.65h0Zm-.69,1.35c-.08.11-.25.16-.5.16s-.4-.06-.45-.17c-.05-.1-.05-.33,0-.7.05-.36.12-.6.2-.71.08-.11.25-.16.5-.16s.4.05.46.16c.05.11.06.34,0,.7-.05.36-.12.6-.2.7h0Zm3-1.94h-1.66l-.35,2.47h.44l.15-1.07h1.19l.05-.39h-1.19l.09-.63h1.23l.05-.39h0Zm2.14,0h-1.66l-.35,2.47h.44l.15-1.07h1.19l.05-.39h-1.19l.09-.63h1.23l.05-.39h0Zm.91,0h-.44l-.35,2.47h.44l.35-2.47h0Zm2.23.12c-.13-.1-.35-.15-.65-.15-.33,0-.58.06-.75.17-.15.1-.26.25-.34.45-.05.13-.09.34-.13.64-.04.3-.06.52-.05.64.01.2.08.35.21.45.14.11.38.17.71.17.3,0,.53-.05.69-.15.19-.12.3-.31.33-.57h-.43c-.02.13-.06.21-.14.25-.08.04-.22.06-.43.06-.24,0-.39-.06-.45-.17-.05-.1-.05-.34,0-.7.05-.36.12-.59.2-.7.08-.11.25-.16.49-.16.21,0,.35.02.41.07.07.04.09.13.07.26h.43c.04-.26-.02-.45-.17-.57h0Zm1.19-.12h-.44l-.35,2.47h.44l.35-2.47h0Zm1.8,0h-.45l-1.3,2.47h.46l.31-.63h.96l.14.63h.48l-.6-2.47h0Zm-.79,1.46l.49-.98.21.98h-.69Zm3.5.61h-1.23l.29-2.08h-.44l-.35,2.47h1.66l.06-.39h0Zm3.03-.92c-.1-.08-.26-.13-.48-.15-.19,0-.38-.01-.57-.02-.1,0-.16-.03-.2-.06-.04-.04-.06-.11-.04-.22.02-.14.06-.23.12-.27.08-.05.24-.08.47-.08.19,0,.31.01.37.03.12.04.17.14.15.29h.43c.04-.27-.02-.46-.19-.57-.14-.1-.37-.15-.7-.15s-.59.05-.76.16c-.18.12-.29.32-.33.59-.04.25,0,.43.13.54.09.08.25.13.47.15.19,0,.38.01.57.02.1,0,.17.03.2.06.04.04.05.12.04.23-.02.14-.07.24-.14.3-.09.06-.24.09-.47.09s-.37-.02-.44-.07c-.07-.05-.1-.13-.08-.26h-.44c-.04.27.03.46.19.58.14.1.38.14.7.14s.6-.06.78-.19c.18-.13.29-.33.33-.61.04-.25,0-.43-.13-.54h0Zm2.27.92h-1.27l.1-.68h1.23l.05-.39h-1.23l.09-.63h1.27l.05-.39h-1.7l-.35,2.47h1.7l.06-.39h0Zm2.17,0h-1.23l.29-2.08h-.44l-.35,2.47h1.66l.06-.39h0Zm2.09,0h-1.27l.1-.68h1.23l.05-.39h-1.23l.09-.63h1.27l.05-.39h-1.7l-.35,2.47h1.7l.06-.39h0Zm2.44-1.95c-.13-.1-.35-.15-.65-.15-.33,0-.58.06-.75.17-.15.1-.26.25-.34.45-.05.13-.09.34-.13.64-.04.3-.06.52-.05.64.01.2.08.35.21.45.14.11.38.17.71.17.3,0,.53-.05.69-.15.18-.12.3-.31.33-.57h-.43c-.02.13-.06.21-.14.25-.08.04-.22.06-.43.06-.24,0-.39-.06-.45-.17-.05-.1-.05-.34,0-.7.05-.36.12-.59.2-.7.08-.11.25-.16.49-.16.21,0,.35.02.41.07.07.04.09.13.07.26h.43c.04-.26-.02-.45-.17-.57h0Zm2.58-.12h-1.94l-.05.39h.75l-.29,2.08h.44l.29-2.08h.75l.05-.39h0Zm.85,0h-.44l-.35,2.47h.44l.35-2.47h0Zm2.44.58c-.01-.2-.08-.35-.21-.44-.14-.11-.37-.16-.69-.16s-.56.06-.73.17c-.15.09-.26.24-.33.44-.04.13-.09.34-.13.65-.04.3-.06.52-.05.65.01.2.08.36.2.45.14.11.37.17.69.17.44,0,.75-.11.92-.34.12-.16.21-.47.27-.93.04-.3.06-.52.05-.65h0Zm-.69,1.35c-.08.11-.25.16-.5.16s-.4-.06-.45-.17c-.05-.1-.05-.33,0-.7.05-.36.12-.6.2-.71.08-.11.25-.16.5-.16s.4.05.46.16c.05.11.06.34,0,.7-.05.36-.12.6-.2.7h0Zm3.22-1.94h-.41l-.25,1.76-.78-1.76h-.44l-.35,2.47h.41l.25-1.77.78,1.77h.45l.35-2.47h0Z"/>
  <path class="cls-1" d="m8.79,34.1h-.53v1.49c0,.35,0,.56,0,.62-.02.16-.07.27-.15.34-.08.06-.23.1-.45.1-.3,0-.48-.08-.55-.24-.04-.09-.06-.37-.06-.82v-1.49h-.53v1.49c0,.31,0,.52.01.63.03.61.41.91,1.13.91s1.1-.3,1.13-.91c0-.11,0-.32,0-.63v-1.49h0Zm2.97,0h-.49v2.14l-1.25-2.14h-.54v3h.49v-2.15l1.25,2.15h.54v-3h0Zm3.82.15c-.18-.12-.45-.18-.82-.18-.4,0-.69.07-.89.21-.17.12-.28.3-.33.54-.03.16-.05.41-.05.78s.02.63.05.78c.05.25.16.43.33.55.19.14.49.21.89.21.37,0,.64-.06.82-.18.21-.14.31-.37.31-.69h-.52c0,.15-.04.26-.13.31-.09.05-.26.08-.52.08-.3,0-.49-.07-.57-.2-.08-.13-.12-.41-.12-.85s.04-.72.13-.85c.08-.13.27-.2.57-.2.25,0,.43.03.51.08.09.05.13.16.13.31h.52c0-.32-.1-.55-.31-.69h0Zm2.97,2.37h-1.54v-.82h1.5v-.47h-1.5v-.76h1.54v-.47h-2.06v3h2.06v-.48h0Zm2.91-.26c0-.22,0-.36-.02-.42-.04-.17-.13-.27-.27-.32.19-.08.29-.3.29-.67s-.12-.63-.36-.75c-.16-.08-.45-.12-.87-.12h-1.05v3h.53v-1.22h.51c.28,0,.45,0,.52.01.1.01.17.05.19.11.02.04.03.15.03.32v.78h.52v-.73h0Zm-.67-1c-.05.02-.23.04-.54.04h-.54v-.83h.51c.25,0,.41,0,.49.02.05,0,.1.03.15.07.06.06.09.16.09.32,0,.21-.05.34-.15.38h0Zm3.51-1.27h-2.36v.47h.91v2.53h.53v-2.53h.91v-.47h0Zm1.59,0h-.54l-1.16,3h.55l.27-.76h1.17l.28.76h.58l-1.15-3h0Zm-.71,1.78l.42-1.19.42,1.19h-.84Zm2.88-1.78h-.53v3h.53v-3h0Zm2.98,0h-.49v2.14l-1.25-2.14h-.54v3h.49v-2.15l1.25,2.15h.54v-3h0Zm4.08,2.27c0-.22,0-.36-.02-.42-.04-.17-.13-.27-.27-.32.19-.08.29-.3.29-.67s-.12-.63-.36-.75c-.16-.08-.45-.12-.87-.12h-1.05v3h.53v-1.22h.51c.28,0,.45,0,.52.01.1.01.17.05.19.11.02.04.03.15.03.32v.78h.52v-.73h0Zm-.67-1c-.05.02-.23.04-.54.04h-.54v-.83h.51c.25,0,.41,0,.49.02.05,0,.1.03.14.07.06.06.09.16.09.32,0,.21-.05.34-.15.38h0Zm3.42,1.25h-1.54v-.82h1.5v-.47h-1.5v-.76h1.54v-.47h-2.06v3h2.06v-.48h0Zm2.98-1.3h-1.25v.46h.74c0,.33-.04.54-.1.64-.09.15-.3.22-.62.22-.29,0-.47-.07-.55-.2-.08-.13-.12-.41-.12-.85s.04-.72.13-.85c.08-.13.27-.2.57-.2.26,0,.43.03.53.08.1.06.14.16.14.31h.53c0-.32-.11-.55-.33-.69-.19-.12-.46-.18-.83-.18-.4,0-.69.07-.89.21-.17.12-.28.3-.33.54-.03.16-.05.41-.05.78,0,.53.05.89.15,1.08.16.31.5.46,1.01.46.39,0,.68-.09.86-.26v.22h.42v-1.77h0Zm2.19-1.23h-.54l-1.16,3h.55l.27-.76h1.17l.28.76h.58l-1.15-3h0Zm-.71,1.78l.42-1.19.42,1.19h-.84Zm4.64.49c0-.22,0-.36-.02-.42-.04-.17-.13-.27-.27-.32.19-.08.29-.3.29-.67s-.12-.63-.36-.75c-.16-.08-.45-.12-.87-.12h-1.05v3h.53v-1.22h.51c.28,0,.45,0,.52.01.1.01.17.05.19.11.02.04.03.15.03.32v.78h.52v-.73h0Zm-.67-1c-.05.02-.23.04-.54.04h-.54v-.83h.51c.25,0,.41,0,.49.02.05,0,.1.03.14.07.06.06.09.16.09.32,0,.21-.05.34-.15.38h0Zm3.74-.33c-.03-.22-.08-.4-.18-.53-.1-.16-.24-.26-.42-.32-.16-.06-.39-.09-.68-.09h-1.11v3h1.12c.29,0,.52-.03.68-.08.17-.06.31-.17.42-.32.09-.13.15-.31.18-.53.01-.11.02-.3.02-.57s0-.45-.02-.56h0Zm-.58,1.26c-.05.14-.13.23-.25.27-.08.03-.24.05-.47.05h-.57v-2.05h.56c.23,0,.39.02.47.05.12.04.2.14.25.28.05.14.07.38.07.7s-.02.56-.07.7h0Z"/>
</svg>