<?xml version="1.0" encoding="UTF-8"?>
<svg id="Design" xmlns="http://www.w3.org/2000/svg" viewBox="0 0 29.76 33.37">
  <defs>
    <style>
      .cls-1 {
        stroke-width: 0px;
      }
    </style>
  </defs>
  <path class="cls-1" d="m0,12.99c.16-.41.44-.66.9-.65.21,0,.42,0,.63,0,.19,0,.37,0,.58,0,0-.08,0-.15,0-.22,0-1.57,0-3.14,0-4.71,0-.66.33-.99.99-.99.5,0,1,0,1.51,0,.54,0,.9.36.9.9,0,1.6,0,3.2,0,4.8v.22h.22c2.17,0,4.35,0,6.52,0,.48,0,.81.24.91.66.02.07.02.15.02.22,0,3.69,0,7.39,0,11.08,0,.52-.36.88-.88.88-.55,0-1.1,0-1.64,0-.5,0-.86-.36-.86-.86,0-2.96,0-5.93,0-8.89v-.21h-4.27s-.01.08-.01.12c0,2.05,0,4.1,0,6.15,0,.17.03.35.09.52.13.42.47.6.87.63.36.03.73.01,1.09,0,.41-.02.61.15.62.55.01.42.04.84.06,1.26.02.43-.12.63-.55.73-1.04.24-2.08.31-3.14.1-1.35-.28-2.19-1.16-2.36-2.53-.05-.39-.08-.78-.08-1.18,0-2.04,0-4.09,0-6.13,0-.07,0-.15,0-.24-.36,0-.7-.02-1.04,0-.52.03-.88-.16-1.07-.65v-1.58Z"/>
  <path class="cls-1" d="m13.15,33.37c-.21-.08-.41-.17-.51-.42.06-.03.13-.07.21-.12.12.22.31.31.55.26.07-.02.19-.09.19-.15,0-.07-.06-.18-.13-.22-.12-.07-.27-.1-.4-.15-.28-.1-.38-.24-.36-.49.02-.2.19-.35.46-.38.29-.04.54.09.67.35-.06.04-.12.08-.18.13-.12-.15-.27-.26-.47-.22-.08.02-.18.09-.19.15-.01.06.07.17.13.2.12.07.27.1.4.14.25.09.37.24.37.44,0,.21-.15.37-.41.44-.02,0-.04.02-.06.03h-.27Z"/>
  <path class="cls-1" d="m15.95,12.34c0-.78,0-1.53,0-2.29,0-.55.06-1.09.23-1.62.35-1.06,1.11-1.65,2.18-1.88.74-.16,1.5-.15,2.25-.11.38.02.76.06,1.14.11.58.09.87.46.85,1.05-.01.32-.03.64-.04.96-.01.35-.25.6-.6.62-.16,0-.33,0-.49-.02-.5-.04-.98,0-1.44.22-.45.22-.69.58-.69,1.09,0,.61,0,1.22,0,1.85h3.77c0-.05,0-.11,0-.17,0-.8-.02-1.6.02-2.4.02-.45.1-.91.23-1.34.33-1.06,1.11-1.63,2.17-1.86.74-.16,1.5-.15,2.25-.1.43.03.85.07,1.27.14.46.09.71.43.7.9,0,.38-.02.76-.04,1.15-.01.27-.25.52-.55.54-.18.01-.36,0-.55-.02-.47-.03-.92,0-1.36.19-.5.22-.76.59-.76,1.15,0,.54,0,1.08,0,1.63,0,.06,0,.12,0,.21h.2c.67,0,1.34,0,2,0,.59,0,.94.35.94.93,0,.35,0,.71,0,1.06,0,.5-.38.87-.88.87-.75,0-1.49,0-2.27,0v.22c0,2.94,0,5.88,0,8.82,0,.47-.23.79-.63.9-.06.02-.13.02-.2.02-.57,0-1.14,0-1.71,0-.48,0-.84-.37-.84-.85,0-2.97,0-5.94,0-8.91v-.21h-3.77c0,.07,0,.14,0,.21,0,2.93,0,5.87,0,8.8,0,.48-.23.81-.64.92-.07.02-.15.03-.22.03-.56,0-1.12,0-1.68,0-.49,0-.85-.35-.87-.84,0-.05,0-.1,0-.15,0-2.91,0-5.82,0-8.73v-.24c-.42,0-.81,0-1.21,0-.12,0-.24-.02-.35-.06-.34-.11-.56-.43-.56-.8,0-.38,0-.77,0-1.15,0-.5.37-.86.87-.86.41,0,.82,0,1.27,0Z"/>
  <path class="cls-1" d="m9.51,8.2c0-1.17.81-1.96,2.01-1.96,1.11,0,1.92.83,1.92,1.97,0,1.15-.84,1.99-2,1.99-1.11,0-1.93-.86-1.93-2Z"/>
  <path class="cls-1" d="m27.99.06c.23-.06.37,0,.5.21.23.38.49.74.77,1.11V.05h.33v1.99c-.2.06-.33,0-.45-.19-.25-.41-.54-.8-.84-1.25v1.44h-.3V.06Z"/>
  <path class="cls-1" d="m1.86,1.04c0,.4-.1.74-.45.94-.61.36-1.32-.05-1.37-.8-.02-.31.02-.62.23-.87C.53,0,.87-.06,1.23.05c.39.11.56.41.61.79.01.07,0,.15.01.2Zm-1.47-.04c0,.13,0,.21.02.29.05.29.24.48.51.5.24.02.45-.13.54-.39.08-.24.08-.48-.01-.72-.08-.22-.27-.35-.49-.35-.22,0-.42.13-.49.35-.04.12-.05.24-.06.32Z"/>
  <path class="cls-1" d="m27.52,1.1c-.01.09-.02.22-.06.35-.12.43-.46.67-.92.65-.41-.02-.74-.31-.81-.73-.03-.2-.03-.41,0-.61.08-.5.43-.76.96-.75.41.01.75.34.81.79.01.08.01.17.02.29Zm-1.49-.05c.04.15.06.29.11.42.08.21.25.31.47.31.22,0,.39-.1.48-.3.13-.28.13-.58,0-.86-.09-.19-.25-.29-.46-.29-.21,0-.38.08-.47.28-.06.14-.08.29-.12.43Z"/>
  <path class="cls-1" d="m15.36.45c-.08.05-.15.11-.24.17-.14-.21-.33-.32-.58-.29-.11.01-.23.03-.26.17-.03.15.06.24.18.29.11.04.22.07.32.11.12.04.24.08.35.14.37.19.39.68.05.92-.34.24-1.09.22-1.33-.37.08-.05.17-.09.27-.15.17.28.41.4.73.33.12-.03.22-.08.23-.22.01-.13-.07-.21-.18-.26-.1-.04-.2-.08-.3-.11-.1-.04-.21-.06-.31-.11-.27-.11-.38-.28-.36-.54.02-.24.17-.42.43-.49.42-.12.84.04,1.01.41Z"/>
  <path class="cls-1" d="m8.83,32.33c-.1.29-.21.58-.31.87-.03.09-.06.14-.18.14-.11,0-.14-.05-.17-.14-.1-.28-.2-.57-.34-.85v.98h-.25v-1.57s.03-.02.05-.02c.3-.01.3-.02.4.27.1.3.21.61.35.91.09-.26.17-.51.26-.77.02-.05.03-.1.04-.15.1-.31.11-.31.46-.25v1.57h-.26v-.99s-.03,0-.05,0Z"/>
  <path class="cls-1" d="m20.64.06v.31h-.94v.48h.69v.31h-.68v.57c.25,0,.5,0,.75,0,.28,0,.29,0,.23.32h-1.33V.06h1.29Z"/>
  <path class="cls-1" d="m15.89.04h1.29v.32h-.94v.49h.68v.3h-.67v.57h.98v.31h-1.34c0-.33,0-.66,0-.99s0-.66,0-1.02Z"/>
  <path class="cls-1" d="m8.16.63s-.07.03-.11.04c-.06.02-.13.04-.17.02-.11-.11-.21-.26-.34-.33-.25-.11-.52.03-.62.3-.1.26-.09.53,0,.79.08.21.25.33.47.34.21,0,.35-.1.45-.33.01-.03.03-.06.04-.1.1.02.2.05.3.07-.03.46-.48.77-.97.67-.3-.06-.51-.22-.62-.51-.14-.39-.14-.77.05-1.14.17-.33.53-.48.93-.41.31.05.52.27.58.62Z"/>
  <path class="cls-1" d="m22.33,1.34c.11.03.21.05.31.08-.04.34-.25.57-.57.65-.36.09-.73-.04-.93-.32-.25-.37-.25-1.04,0-1.4.22-.31.53-.38.88-.33.29.04.47.21.57.48.01.04.02.09.03.14-.11.03-.2.06-.31.09-.02-.04-.04-.07-.05-.11-.07-.18-.2-.29-.4-.29-.2,0-.37.08-.45.28-.13.29-.13.59,0,.88.08.2.25.29.46.29.21,0,.35-.1.43-.32.01-.03.02-.06.04-.11Z"/>
  <path class="cls-1" d="m9.43,2.08c.17-.49.33-.93.48-1.38.07-.19.13-.39.21-.58.02-.05.12-.08.19-.08.07,0,.19.03.2.08.23.63.45,1.26.67,1.9,0,0,0,.02,0,.03-.02,0-.03,0-.05,0-.29.01-.3.02-.37-.26-.05-.17-.13-.25-.31-.22-.03,0-.07,0-.1,0-.14,0-.3-.04-.4.02-.09.06-.11.23-.15.35-.07.2-.22.06-.37.12Zm1.15-.81c-.09-.25-.17-.49-.27-.79-.1.29-.18.53-.27.79h.54Z"/>
  <path class="cls-1" d="m2.32,2.05V.06h1.26v.31h-.91v.52h.64v.32h-.64v.85h-.35Z"/>
  <path class="cls-1" d="m4,.05h1.23s.02.02.02.03q.02.29-.27.29c-.21,0-.42,0-.64,0v.51h.64v.32h-.65v.84h-.33V.05Z"/>
  <path class="cls-1" d="m12.84,29.68v1.07h-.25v-1.57c.18-.06.3,0,.4.16.18.3.38.59.62.87v-1.04h.25v1.58c-.15.04-.25.01-.35-.14-.2-.32-.42-.63-.63-.95-.01,0-.02,0-.04.01Z"/>
  <path class="cls-1" d="m7.64,30.22v-1.04h.25v1.57c-.15.04-.26.02-.35-.13-.2-.32-.42-.63-.66-.98v1.12h-.26v-1.57c.17-.05.29-.01.39.16.18.31.39.6.59.89.01,0,.02-.01.04-.02Z"/>
  <path class="cls-1" d="m25.61,29.68v1.08h-.24v-1.57c.17-.05.29-.02.39.15.18.3.38.59.61.88v-1.04h.26v1.57c-.16.05-.26,0-.35-.14-.2-.32-.42-.63-.63-.94-.01,0-.03.01-.04.02Z"/>
  <path class="cls-1" d="m3.45,29.17c.23,0,.46-.01.68,0,.3.02.44.15.48.39.04.24-.06.41-.33.55.11.21.23.41.34.62-.26.06-.27.06-.39-.16-.05-.09-.11-.17-.15-.27-.07-.17-.18-.2-.36-.14v.59h-.27v-1.59Zm.28.71c.14,0,.27,0,.4,0,.14,0,.2-.1.2-.23,0-.13-.08-.21-.21-.22-.13,0-.26,0-.4,0v.45Z"/>
  <path class="cls-1" d="m18.22,30.75c-.21.06-.33,0-.41-.18-.03-.09-.1-.17-.14-.25-.06-.17-.18-.2-.36-.14v.59h-.27v-1.58c.24,0,.47-.02.69,0,.29.03.43.15.47.39.04.24-.06.41-.33.55.11.21.23.41.35.63Zm-.9-.87c.15,0,.29,0,.42,0,.13-.01.19-.1.19-.22,0-.12-.07-.21-.19-.22-.14-.01-.28,0-.42,0v.45Z"/>
  <path class="cls-1" d="m19.83,29.18v1.57c-.16.05-.26,0-.35-.13-.2-.31-.41-.61-.65-.91v1.06h-.26v-1.57c.18-.06.29,0,.39.16.18.3.39.59.61.87v-1.04h.25Z"/>
  <path class="cls-1" d="m9.55,29.97c0-.6.42-.95.95-.79.37.11.57.54.47,1.03-.09.45-.49.69-.92.56-.31-.09-.49-.39-.49-.8Zm1.17,0c-.03-.12-.04-.25-.1-.36-.14-.28-.54-.3-.7-.03-.14.24-.14.5,0,.75.07.14.21.2.37.2.16,0,.28-.08.34-.22.05-.11.06-.23.1-.35Z"/>
  <path class="cls-1" d="m25.05,29.97c0,.47-.21.76-.6.82-.11.02-.23,0-.34-.03-.4-.11-.59-.6-.46-1.1.11-.39.47-.6.88-.5.33.08.52.37.52.8Zm-1.15,0c0,.06,0,.13.02.2.04.22.19.36.38.37.23.01.39-.09.44-.34.03-.14.03-.3,0-.44-.05-.25-.21-.37-.42-.36-.22,0-.37.16-.41.41,0,.05,0,.1-.01.16Z"/>
  <path class="cls-1" d="m3.12,29.95c0,.33-.08.6-.37.76-.41.24-.94,0-1.03-.46-.04-.17-.04-.35,0-.52.06-.39.36-.61.73-.59.36.02.63.28.67.66,0,.06,0,.11.01.15Zm-.27.02c-.02-.09-.02-.18-.05-.27-.06-.19-.2-.3-.39-.31-.19,0-.34.09-.4.28-.07.2-.07.4,0,.6.07.17.19.26.38.26.27,0,.43-.21.45-.57Z"/>
  <path class="cls-1" d="m6.3,29.97c0,.46-.21.75-.59.81-.11.02-.23,0-.34-.02-.4-.11-.61-.59-.47-1.09.11-.41.47-.62.88-.51.33.08.52.38.52.81Zm-1.17-.03c.02.11.03.21.07.31.07.2.2.29.4.28.19,0,.33-.11.39-.3.07-.2.06-.41-.03-.6-.07-.15-.19-.24-.36-.24-.17,0-.3.07-.37.23-.05.1-.06.22-.09.32Z"/>
  <path class="cls-1" d="m24.44.37h-.6v1.67h-.35V.37c-.15,0-.28,0-.41,0q-.23,0-.22-.24s0-.04,0-.08h1.57v.32Z"/>
  <path class="cls-1" d="m11.4,33.33v-1.58h1.01v.26h-.73v.37h.53v.25h-.53v.45h.77v.26h-1.05Z"/>
  <path class="cls-1" d="m16.69,29.18v.25h-.73v.38h.54v.24h-.53v.45h.77v.25h-1.06v-1.58h1.01Z"/>
  <path class="cls-1" d="m18.01,1.73h.91v.32h-1.24V.05h.32v1.68Z"/>
  <path class="cls-1" d="m12.87,1.73v.32h-1.25V.06h.33v1.67h.92Z"/>
  <path class="cls-1" d="m22.13,32.53c.04-.17.05-.32.11-.46.08-.24.29-.37.54-.37.27,0,.46.12.56.36.12.31.12.62,0,.93-.09.22-.26.34-.5.35-.26.01-.46-.09-.56-.33-.07-.15-.09-.32-.13-.48Zm.28,0c.03.13.05.26.09.38.05.13.15.2.29.19.14,0,.24-.07.29-.2.1-.25.1-.51,0-.77-.05-.13-.16-.2-.3-.19-.13,0-.25.07-.29.2-.04.12-.06.25-.09.39Z"/>
  <path class="cls-1" d="m20.1,30.77c.19-.54.36-1.04.55-1.54.01-.04.11-.06.16-.07.05,0,.13.03.15.06.18.5.36,1,.54,1.51-.26.06-.27.06-.34-.18-.04-.14-.11-.2-.25-.17-.03,0-.06,0-.09,0-.3,0-.3,0-.41.28-.06.15-.17.08-.3.1Zm.71-1.2h-.04c-.06.18-.12.37-.19.56h.41c-.07-.2-.13-.38-.19-.56Z"/>
  <path class="cls-1" d="m28.28,30.75c-.25.03-.26.03-.33-.21-.04-.11-.09-.17-.21-.16-.14.01-.28,0-.42,0-.11.15-.05.47-.4.36.05-.15.1-.31.16-.46.12-.34.24-.69.37-1.03.02-.04.1-.09.15-.09.06,0,.16.03.18.07.18.49.35.98.52,1.46,0,.01,0,.03,0,.05Zm-.89-.62h.42c-.07-.2-.13-.38-.19-.56-.01,0-.03,0-.04.01-.06.18-.12.35-.19.55Z"/>
  <path class="cls-1" d="m18.88,33.31c-.23.08-.32-.01-.35-.21-.02-.11-.08-.17-.2-.15-.04,0-.09,0-.14,0q-.29,0-.4.27t-.29.09c.15-.41.29-.83.43-1.24.02-.06.05-.13.07-.19.03-.11.07-.16.2-.16.12,0,.15.06.19.15.15.42.3.85.45,1.27.02.05.03.11.05.16Zm-.67-1.16s-.03,0-.04,0c-.06.18-.12.36-.19.55h.41c-.07-.2-.13-.38-.19-.56Z"/>
  <path class="cls-1" d="m25.55,33.29v-.29h-.81c.04-.12.05-.23.1-.31.16-.25.34-.5.51-.75q.16-.23.46-.2v1c.1,0,.17.01.26.02v.22c-.08,0-.16.01-.24.02,0,.1,0,.19-.01.29h-.26Zm-.02-.54v-.68c-.16.24-.3.45-.45.68h.45Z"/>
  <path class="cls-1" d="m23.57,32.03c.16-.23.36-.35.63-.34.19.01.35.08.42.26.08.19.06.38-.09.52-.1.1-.23.17-.34.26-.11.09-.21.18-.32.27,0,.02.02.03.02.05h.76v.23h-1.09c-.03-.23.07-.4.22-.54.11-.1.25-.18.37-.27.05-.04.11-.08.16-.13.08-.09.11-.22.03-.31-.06-.06-.2-.1-.28-.08-.11.02-.2.12-.31.19-.04-.03-.1-.07-.18-.12Z"/>
  <path class="cls-1" d="m21.2,33.07h.75v.22h-1.09c-.03-.23.07-.4.23-.54.11-.1.24-.17.36-.26.07-.05.16-.1.18-.17.03-.08.05-.21,0-.28-.04-.06-.17-.1-.25-.08-.11.03-.21.11-.35.19-.03-.02-.09-.06-.16-.1.16-.28.43-.4.72-.34.35.08.48.49.23.76-.09.1-.22.17-.33.26-.11.09-.22.19-.33.28.01.02.02.04.03.06Z"/>
  <path class="cls-1" d="m16.81,32.96c.09-.27.17-.5.25-.73.04-.1.08-.2.1-.31.03-.19.14-.22.32-.17-.1.28-.19.56-.29.83-.08.22-.15.44-.23.66-.02.04-.07.09-.11.09-.07,0-.18-.01-.19-.05-.19-.5-.36-1.01-.53-1.53.27-.05.27-.05.34.17.11.33.22.66.34,1.03Z"/>
  <path class="cls-1" d="m10.39,31.99v.42h.51v.25c-.11,0-.22.01-.32,0-.16-.02-.21.05-.2.2.01.15,0,.3,0,.46h-.27v-1.58h.99v.25h-.71Z"/>
  <path class="cls-1" d="m5.1,32.66h-.51v.66h-.27v-1.58h.98v.25h-.7v.42h.5v.25Z"/>
  <path class="cls-1" d="m9.02,2.05h-.33V.05h.33v2Z"/>
  <path class="cls-1" d="m1.09,30.76h-.28v-1.33h-.48v-.26h1.23v.25h-.47v1.33Z"/>
  <path class="cls-1" d="m14.5,32h-.48v-.25h1.24v.25h-.47v1.33h-.29v-1.33Z"/>
  <path class="cls-1" d="m14.63,29.43h-.48v-.25h1.23v.25h-.47v1.32h-.28v-1.32Z"/>
  <path class="cls-1" d="m22.23,30.76h-.28v-1.33h-.49v-.26h1.23v.25h-.47v1.33Z"/>
  <path class="cls-1" d="m8.68,29.43h-.48v-.25h1.22v.24h-.47v1.33h-.27v-1.32Z"/>
  <path class="cls-1" d="m24.88.05h.33v2h-.33V.05Z"/>
  <path class="cls-1" d="m6.02,2.05h-.32V.06h.32v1.99Z"/>
  <path class="cls-1" d="m29.58,30.51v.25h-1v-1.58h.26v1.33h.74Z"/>
  <path class="cls-1" d="m20.16,33.07v.25h-1v-1.58h.26v1.33h.74Z"/>
  <path class="cls-1" d="m6.3,31.74h.26v1.33h.72v.25h-.98v-1.59Z"/>
  <path class="cls-1" d="m5.61,31.74h.26v1.58h-.26v-1.58Z"/>
  <path class="cls-1" d="m11.91,29.17h.25v1.58h-.25v-1.58Z"/>
  <path class="cls-1" d="m23.26,30.76h-.25v-1.59h.25v1.59Z"/>
  <path class="cls-1" d="m15.57,31.74h.25v1.58h-.25v-1.58Z"/>
</svg>